G75*
%MOIN*%
%OFA0B0*%
%FSLAX24Y24*%
%IPPOS*%
%LPD*%
%AMOC8*
5,1,8,0,0,1.08239X$1,22.5*
%
%ADD10R,0.0600X0.2550*%
%ADD11OC8,0.0600*%
%ADD12C,0.0160*%
%ADD13C,0.0310*%
%ADD14C,0.0120*%
D10*
X002725Y003800D03*
X003725Y003800D03*
X004725Y003800D03*
X005725Y003800D03*
X006725Y003800D03*
X007725Y003800D03*
X008725Y003800D03*
X009725Y003800D03*
X010725Y003800D03*
X011725Y003800D03*
X012725Y003800D03*
X013725Y003800D03*
D11*
X006225Y019925D03*
X005225Y019925D03*
X004225Y019925D03*
X003225Y019925D03*
X002225Y019925D03*
X001225Y019925D03*
D12*
X000925Y019462D02*
X000580Y019462D01*
X000580Y019620D02*
X000766Y019620D01*
X000685Y019701D02*
X001001Y019385D01*
X001449Y019385D01*
X001765Y019701D01*
X001765Y019706D01*
X001861Y019610D01*
X001765Y019610D01*
X001655Y019564D01*
X001571Y019480D01*
X001321Y019230D01*
X001275Y019120D01*
X001275Y015809D01*
X000821Y015355D01*
X000775Y015245D01*
X000775Y010500D01*
X000821Y010390D01*
X002305Y008906D01*
X002305Y008856D01*
X002365Y008711D01*
X002476Y008600D01*
X002621Y008540D01*
X002650Y008540D01*
X002650Y005625D01*
X002696Y005515D01*
X002780Y005431D01*
X002805Y005406D01*
X002805Y005356D01*
X002847Y005255D01*
X002795Y005255D01*
X002795Y004675D01*
X002655Y004675D01*
X002655Y005255D01*
X002401Y005255D01*
X002356Y005243D01*
X002330Y005228D01*
X002330Y008284D01*
X002335Y008363D01*
X002330Y008379D01*
X002330Y008395D01*
X002300Y008469D01*
X002274Y008544D01*
X002263Y008557D01*
X002257Y008572D01*
X002201Y008628D01*
X000580Y010480D01*
X000580Y015538D01*
X000727Y015538D01*
X000805Y015570D01*
X000820Y015570D01*
X000997Y015643D01*
X001132Y015778D01*
X001205Y015955D01*
X001205Y015970D01*
X001237Y016048D01*
X001237Y016302D01*
X001205Y016380D01*
X001205Y017470D01*
X001237Y017548D01*
X001237Y017802D01*
X001205Y017880D01*
X001205Y017895D01*
X001132Y018072D01*
X000997Y018207D01*
X000820Y018280D01*
X000805Y018280D01*
X000727Y018312D01*
X000580Y018312D01*
X000580Y020570D01*
X015870Y020570D01*
X015870Y018312D01*
X015723Y018312D01*
X015645Y018280D01*
X015630Y018280D01*
X015453Y018207D01*
X015318Y018072D01*
X015245Y017895D01*
X015245Y017880D01*
X015213Y017802D01*
X015213Y017548D01*
X015245Y017470D01*
X015245Y016380D01*
X015213Y016302D01*
X015213Y016048D01*
X015245Y015970D01*
X015245Y015955D01*
X015318Y015778D01*
X015453Y015643D01*
X015630Y015570D01*
X015645Y015570D01*
X015723Y015538D01*
X015870Y015538D01*
X015870Y010480D01*
X014249Y008628D01*
X014193Y008572D01*
X014187Y008557D01*
X014176Y008544D01*
X014150Y008469D01*
X014120Y008395D01*
X014120Y008379D01*
X014115Y008363D01*
X014120Y008284D01*
X014120Y005295D01*
X014073Y005315D01*
X014025Y005315D01*
X014025Y008790D01*
X014029Y008790D01*
X014174Y008850D01*
X014285Y008961D01*
X014345Y009106D01*
X014345Y009193D01*
X014424Y009225D01*
X014535Y009336D01*
X014595Y009481D01*
X014595Y009568D01*
X014674Y009600D01*
X014785Y009711D01*
X014845Y009856D01*
X014845Y009943D01*
X014924Y009975D01*
X015035Y010086D01*
X015095Y010231D01*
X015095Y010318D01*
X015174Y010350D01*
X015285Y010461D01*
X015345Y010606D01*
X015345Y010693D01*
X015424Y010725D01*
X015535Y010836D01*
X015595Y010981D01*
X015595Y011139D01*
X015535Y011284D01*
X015424Y011395D01*
X015279Y011455D01*
X015121Y011455D01*
X014976Y011395D01*
X014941Y011360D01*
X014049Y011360D01*
X014995Y012306D01*
X015079Y012390D01*
X015125Y012500D01*
X015125Y016426D01*
X015160Y016461D01*
X015220Y016606D01*
X015220Y016764D01*
X015160Y016909D01*
X015134Y016935D01*
X015160Y016961D01*
X015220Y017106D01*
X015220Y017264D01*
X015160Y017409D01*
X015049Y017520D01*
X014952Y017560D01*
X015049Y017600D01*
X015160Y017711D01*
X015220Y017856D01*
X015220Y018014D01*
X015160Y018159D01*
X015071Y018248D01*
X015160Y018336D01*
X015220Y018481D01*
X015220Y018639D01*
X015160Y018784D01*
X015049Y018895D01*
X014904Y018955D01*
X014746Y018955D01*
X014601Y018895D01*
X014490Y018784D01*
X014430Y018639D01*
X014430Y018589D01*
X014125Y018284D01*
X014125Y019176D01*
X014160Y019211D01*
X014220Y019356D01*
X014220Y019514D01*
X014160Y019659D01*
X014049Y019770D01*
X013904Y019830D01*
X013746Y019830D01*
X013601Y019770D01*
X013490Y019659D01*
X013430Y019514D01*
X013430Y019356D01*
X013490Y019211D01*
X013525Y019176D01*
X013525Y013184D01*
X012595Y012254D01*
X012595Y012389D01*
X012535Y012534D01*
X012424Y012645D01*
X012279Y012705D01*
X012121Y012705D01*
X011976Y012645D01*
X011865Y012534D01*
X011845Y012485D01*
X011674Y012485D01*
X011954Y012765D01*
X012000Y012875D01*
X012000Y013801D01*
X012035Y013836D01*
X012095Y013981D01*
X012095Y014139D01*
X012035Y014284D01*
X011924Y014395D01*
X011779Y014455D01*
X011621Y014455D01*
X011476Y014395D01*
X011365Y014284D01*
X011305Y014139D01*
X011305Y013981D01*
X011365Y013836D01*
X011400Y013801D01*
X011400Y013059D01*
X010576Y012235D01*
X003699Y012235D01*
X003595Y012339D01*
X003595Y012389D01*
X003535Y012534D01*
X003424Y012645D01*
X003279Y012705D01*
X003121Y012705D01*
X002976Y012645D01*
X002865Y012534D01*
X002805Y012389D01*
X002805Y012302D01*
X002726Y012270D01*
X002615Y012159D01*
X002555Y012014D01*
X002555Y011927D01*
X002476Y011895D01*
X002375Y011794D01*
X002375Y014561D01*
X002695Y014881D01*
X002726Y014850D01*
X002871Y014790D01*
X003029Y014790D01*
X003174Y014850D01*
X003209Y014885D01*
X003326Y014885D01*
X004555Y013656D01*
X004555Y013606D01*
X004615Y013461D01*
X004726Y013350D01*
X004871Y013290D01*
X005029Y013290D01*
X005174Y013350D01*
X005285Y013461D01*
X005345Y013606D01*
X005345Y013764D01*
X005285Y013909D01*
X005174Y014020D01*
X005029Y014080D01*
X004979Y014080D01*
X003620Y015439D01*
X003510Y015485D01*
X003250Y015485D01*
X003250Y015676D01*
X003285Y015711D01*
X003345Y015856D01*
X003345Y016014D01*
X003285Y016159D01*
X003174Y016270D01*
X003029Y016330D01*
X002875Y016330D01*
X002875Y017936D01*
X002949Y018010D01*
X003351Y018010D01*
X003196Y017855D01*
X003150Y017745D01*
X003150Y017069D01*
X003115Y017034D01*
X003055Y016889D01*
X003055Y016731D01*
X003115Y016586D01*
X003226Y016475D01*
X003371Y016415D01*
X003529Y016415D01*
X003555Y016426D01*
X003555Y016356D01*
X003615Y016211D01*
X003726Y016100D01*
X003805Y016068D01*
X003805Y015981D01*
X003865Y015836D01*
X003976Y015725D01*
X004121Y015665D01*
X004279Y015665D01*
X004424Y015725D01*
X004535Y015836D01*
X004595Y015981D01*
X004595Y016068D01*
X004674Y016100D01*
X004785Y016211D01*
X004845Y016356D01*
X004845Y016514D01*
X004826Y016559D01*
X004871Y016540D01*
X005029Y016540D01*
X005034Y016542D01*
X005101Y016475D01*
X005199Y016434D01*
X005240Y016336D01*
X005351Y016225D01*
X005496Y016165D01*
X005583Y016165D01*
X005615Y016086D01*
X005726Y015975D01*
X005871Y015915D01*
X006029Y015915D01*
X006174Y015975D01*
X006209Y016010D01*
X008010Y016010D01*
X008120Y016056D01*
X008949Y016885D01*
X009726Y016885D01*
X009696Y016855D01*
X008345Y015504D01*
X008345Y015514D01*
X008285Y015659D01*
X008174Y015770D01*
X008029Y015830D01*
X007871Y015830D01*
X007726Y015770D01*
X007615Y015659D01*
X007555Y015514D01*
X007555Y015464D01*
X007196Y015105D01*
X007150Y014995D01*
X007150Y012944D01*
X007115Y012909D01*
X007055Y012764D01*
X007055Y012606D01*
X007115Y012461D01*
X007226Y012350D01*
X007371Y012290D01*
X007529Y012290D01*
X007637Y012335D01*
X007746Y012290D01*
X007904Y012290D01*
X008013Y012335D01*
X008121Y012290D01*
X008279Y012290D01*
X008387Y012335D01*
X008496Y012290D01*
X008654Y012290D01*
X008762Y012335D01*
X008871Y012290D01*
X009029Y012290D01*
X009174Y012350D01*
X009285Y012461D01*
X009345Y012606D01*
X009345Y012764D01*
X009285Y012909D01*
X009250Y012944D01*
X009250Y014375D01*
X009951Y014375D01*
X009976Y014350D01*
X010121Y014290D01*
X010279Y014290D01*
X010424Y014350D01*
X010535Y014461D01*
X010595Y014606D01*
X010595Y014764D01*
X010535Y014909D01*
X010509Y014935D01*
X010535Y014961D01*
X010595Y015106D01*
X010595Y015264D01*
X010535Y015409D01*
X010509Y015435D01*
X010535Y015461D01*
X010595Y015606D01*
X010595Y015764D01*
X010535Y015909D01*
X010424Y016020D01*
X010279Y016080D01*
X010121Y016080D01*
X009976Y016020D01*
X009941Y015985D01*
X009674Y015985D01*
X010021Y016332D01*
X010121Y016290D01*
X010279Y016290D01*
X010424Y016350D01*
X010535Y016461D01*
X010595Y016606D01*
X010595Y016764D01*
X010545Y016885D01*
X010826Y016885D01*
X011025Y016686D01*
X011025Y015375D01*
X011071Y015265D01*
X012180Y014156D01*
X012180Y014106D01*
X012240Y013961D01*
X012351Y013850D01*
X012496Y013790D01*
X012654Y013790D01*
X012799Y013850D01*
X012825Y013876D01*
X012851Y013850D01*
X012996Y013790D01*
X013154Y013790D01*
X013299Y013850D01*
X013410Y013961D01*
X013470Y014106D01*
X013470Y014264D01*
X013410Y014409D01*
X013384Y014435D01*
X013410Y014461D01*
X013470Y014606D01*
X013470Y014764D01*
X013410Y014909D01*
X013384Y014935D01*
X013410Y014961D01*
X013470Y015106D01*
X013470Y015264D01*
X013410Y015409D01*
X013384Y015435D01*
X013410Y015461D01*
X013470Y015606D01*
X013470Y015764D01*
X013410Y015909D01*
X013384Y015935D01*
X013410Y015961D01*
X013470Y016106D01*
X013470Y016264D01*
X013410Y016409D01*
X013384Y016435D01*
X013410Y016461D01*
X013470Y016606D01*
X013470Y016764D01*
X013410Y016909D01*
X013384Y016935D01*
X013410Y016961D01*
X013470Y017106D01*
X013470Y017264D01*
X013410Y017409D01*
X013375Y017444D01*
X013375Y018745D01*
X013329Y018855D01*
X013245Y018939D01*
X012995Y019189D01*
X012885Y019235D01*
X010545Y019235D01*
X010575Y019309D01*
X010621Y019290D01*
X010779Y019290D01*
X010924Y019350D01*
X011035Y019461D01*
X011075Y019559D01*
X011121Y019540D01*
X011279Y019540D01*
X011424Y019600D01*
X011450Y019626D01*
X011476Y019600D01*
X011621Y019540D01*
X011779Y019540D01*
X011924Y019600D01*
X012035Y019711D01*
X012095Y019856D01*
X012095Y020014D01*
X012035Y020159D01*
X011924Y020270D01*
X011779Y020330D01*
X011729Y020330D01*
X011620Y020439D01*
X011510Y020485D01*
X007265Y020485D01*
X007155Y020439D01*
X007071Y020355D01*
X006765Y020049D01*
X006765Y020149D01*
X006449Y020465D01*
X006001Y020465D01*
X005725Y020189D01*
X005449Y020465D01*
X005001Y020465D01*
X004725Y020189D01*
X004449Y020465D01*
X004001Y020465D01*
X003725Y020189D01*
X003449Y020465D01*
X003001Y020465D01*
X002685Y020149D01*
X002685Y020144D01*
X002424Y020405D01*
X002245Y020405D01*
X002245Y019945D01*
X002205Y019945D01*
X002205Y020405D01*
X002026Y020405D01*
X001765Y020144D01*
X001765Y020149D01*
X001449Y020465D01*
X001001Y020465D01*
X000685Y020149D01*
X000685Y019701D01*
X000685Y019779D02*
X000580Y019779D01*
X000580Y019937D02*
X000685Y019937D01*
X000685Y020096D02*
X000580Y020096D01*
X000580Y020254D02*
X000790Y020254D01*
X000949Y020413D02*
X000580Y020413D01*
X001501Y020413D02*
X002949Y020413D01*
X002790Y020254D02*
X002575Y020254D01*
X002245Y020254D02*
X002205Y020254D01*
X002205Y020096D02*
X002245Y020096D01*
X001875Y020254D02*
X001660Y020254D01*
X001684Y019620D02*
X001851Y019620D01*
X001552Y019462D02*
X001525Y019462D01*
X001394Y019303D02*
X000580Y019303D01*
X000580Y019145D02*
X001285Y019145D01*
X001275Y018986D02*
X000580Y018986D01*
X000580Y018828D02*
X001275Y018828D01*
X001275Y018669D02*
X000580Y018669D01*
X000580Y018511D02*
X001275Y018511D01*
X001275Y018352D02*
X000580Y018352D01*
X001010Y018194D02*
X001275Y018194D01*
X001275Y018035D02*
X001147Y018035D01*
X001207Y017877D02*
X001275Y017877D01*
X001275Y017718D02*
X001237Y017718D01*
X001237Y017560D02*
X001275Y017560D01*
X001275Y017401D02*
X001205Y017401D01*
X001205Y017243D02*
X001275Y017243D01*
X001275Y017084D02*
X001205Y017084D01*
X001205Y016926D02*
X001275Y016926D01*
X001275Y016767D02*
X001205Y016767D01*
X001205Y016609D02*
X001275Y016609D01*
X001275Y016450D02*
X001205Y016450D01*
X001237Y016292D02*
X001275Y016292D01*
X001275Y016133D02*
X001237Y016133D01*
X001207Y015975D02*
X001275Y015975D01*
X001275Y015816D02*
X001148Y015816D01*
X001123Y015658D02*
X001011Y015658D01*
X000965Y015499D02*
X000580Y015499D01*
X000580Y015341D02*
X000815Y015341D01*
X000775Y015182D02*
X000580Y015182D01*
X000580Y015024D02*
X000775Y015024D01*
X000775Y014865D02*
X000580Y014865D01*
X000580Y014707D02*
X000775Y014707D01*
X000775Y014548D02*
X000580Y014548D01*
X000580Y014390D02*
X000775Y014390D01*
X000775Y014231D02*
X000580Y014231D01*
X000580Y014073D02*
X000775Y014073D01*
X000775Y013914D02*
X000580Y013914D01*
X000580Y013756D02*
X000775Y013756D01*
X000775Y013597D02*
X000580Y013597D01*
X000580Y013439D02*
X000775Y013439D01*
X000775Y013280D02*
X000580Y013280D01*
X000580Y013122D02*
X000775Y013122D01*
X000775Y012963D02*
X000580Y012963D01*
X000580Y012805D02*
X000775Y012805D01*
X000775Y012646D02*
X000580Y012646D01*
X000580Y012488D02*
X000775Y012488D01*
X000775Y012329D02*
X000580Y012329D01*
X000580Y012171D02*
X000775Y012171D01*
X000775Y012012D02*
X000580Y012012D01*
X000580Y011854D02*
X000775Y011854D01*
X000775Y011695D02*
X000580Y011695D01*
X000580Y011537D02*
X000775Y011537D01*
X000775Y011378D02*
X000580Y011378D01*
X000580Y011220D02*
X000775Y011220D01*
X000775Y011061D02*
X000580Y011061D01*
X000580Y010903D02*
X000775Y010903D01*
X000775Y010744D02*
X000580Y010744D01*
X000580Y010586D02*
X000775Y010586D01*
X000805Y010427D02*
X000627Y010427D01*
X000765Y010269D02*
X000942Y010269D01*
X000904Y010110D02*
X001101Y010110D01*
X001043Y009952D02*
X001259Y009952D01*
X001181Y009793D02*
X001418Y009793D01*
X001320Y009635D02*
X001576Y009635D01*
X001459Y009476D02*
X001735Y009476D01*
X001597Y009318D02*
X001893Y009318D01*
X001736Y009159D02*
X002052Y009159D01*
X002210Y009001D02*
X001875Y009001D01*
X002014Y008842D02*
X002311Y008842D01*
X002393Y008684D02*
X002152Y008684D01*
X002281Y008525D02*
X002650Y008525D01*
X002650Y008367D02*
X002334Y008367D01*
X002330Y008208D02*
X002650Y008208D01*
X002650Y008050D02*
X002330Y008050D01*
X002330Y007891D02*
X002650Y007891D01*
X002650Y007733D02*
X002330Y007733D01*
X002330Y007574D02*
X002650Y007574D01*
X002650Y007416D02*
X002330Y007416D01*
X002330Y007257D02*
X002650Y007257D01*
X002650Y007099D02*
X002330Y007099D01*
X002330Y006940D02*
X002650Y006940D01*
X002650Y006782D02*
X002330Y006782D01*
X002330Y006623D02*
X002650Y006623D01*
X002650Y006465D02*
X002330Y006465D01*
X002330Y006306D02*
X002650Y006306D01*
X002650Y006148D02*
X002330Y006148D01*
X002330Y005989D02*
X002650Y005989D01*
X002650Y005831D02*
X002330Y005831D01*
X002330Y005672D02*
X002650Y005672D01*
X002697Y005514D02*
X002330Y005514D01*
X002330Y005355D02*
X002806Y005355D01*
X002795Y005197D02*
X002655Y005197D01*
X002655Y005038D02*
X002795Y005038D01*
X002795Y004880D02*
X002655Y004880D01*
X002655Y004721D02*
X002795Y004721D01*
X003595Y005504D02*
X003595Y005514D01*
X003550Y005622D01*
X003595Y005731D01*
X003595Y005818D01*
X003674Y005850D01*
X003785Y005961D01*
X003845Y006106D01*
X003845Y006193D01*
X003924Y006225D01*
X004035Y006336D01*
X004095Y006481D01*
X004095Y006639D01*
X004035Y006784D01*
X004000Y006819D01*
X004000Y009495D01*
X003954Y009605D01*
X002691Y010868D01*
X002709Y010885D01*
X007105Y010885D01*
X007055Y010764D01*
X007055Y010606D01*
X007115Y010461D01*
X007150Y010426D01*
X007150Y007069D01*
X007115Y007034D01*
X007055Y006889D01*
X007055Y006731D01*
X007115Y006586D01*
X007146Y006555D01*
X007076Y006485D01*
X006515Y006485D01*
X006405Y006439D01*
X006201Y006235D01*
X005640Y006235D01*
X005530Y006189D01*
X005326Y005985D01*
X004765Y005985D01*
X004655Y005939D01*
X004451Y005735D01*
X003890Y005735D01*
X003780Y005689D01*
X003595Y005504D01*
X003595Y005514D02*
X003604Y005514D01*
X003570Y005672D02*
X003763Y005672D01*
X003626Y005831D02*
X004546Y005831D01*
X004005Y006306D02*
X006272Y006306D01*
X006466Y006465D02*
X004088Y006465D01*
X004095Y006623D02*
X007100Y006623D01*
X007055Y006782D02*
X004036Y006782D01*
X004000Y006940D02*
X007076Y006940D01*
X007150Y007099D02*
X004000Y007099D01*
X004000Y007257D02*
X007150Y007257D01*
X007150Y007416D02*
X004000Y007416D01*
X004000Y007574D02*
X007150Y007574D01*
X007150Y007733D02*
X004000Y007733D01*
X004000Y007891D02*
X007150Y007891D01*
X007150Y008050D02*
X004000Y008050D01*
X004000Y008208D02*
X007150Y008208D01*
X007150Y008367D02*
X004000Y008367D01*
X004000Y008525D02*
X007150Y008525D01*
X007150Y008684D02*
X004000Y008684D01*
X004000Y008842D02*
X007150Y008842D01*
X007150Y009001D02*
X004000Y009001D01*
X004000Y009159D02*
X007150Y009159D01*
X007150Y009318D02*
X004000Y009318D01*
X004000Y009476D02*
X007150Y009476D01*
X007150Y009635D02*
X003925Y009635D01*
X003766Y009793D02*
X007150Y009793D01*
X007150Y009952D02*
X003608Y009952D01*
X003449Y010110D02*
X007150Y010110D01*
X007150Y010269D02*
X003291Y010269D01*
X003132Y010427D02*
X007149Y010427D01*
X007064Y010586D02*
X002974Y010586D01*
X002815Y010744D02*
X007055Y010744D01*
X007277Y012329D02*
X003605Y012329D01*
X003554Y012488D02*
X007104Y012488D01*
X007055Y012646D02*
X003421Y012646D01*
X002979Y012646D02*
X002375Y012646D01*
X002375Y012488D02*
X002846Y012488D01*
X002805Y012329D02*
X002375Y012329D01*
X002375Y012171D02*
X002627Y012171D01*
X002555Y012012D02*
X002375Y012012D01*
X002375Y011854D02*
X002435Y011854D01*
X002375Y012805D02*
X007072Y012805D01*
X007150Y012963D02*
X002375Y012963D01*
X002375Y013122D02*
X007150Y013122D01*
X007150Y013280D02*
X002375Y013280D01*
X002375Y013439D02*
X004638Y013439D01*
X004559Y013597D02*
X002375Y013597D01*
X002375Y013756D02*
X004455Y013756D01*
X004297Y013914D02*
X002375Y013914D01*
X002375Y014073D02*
X004138Y014073D01*
X003980Y014231D02*
X002375Y014231D01*
X002375Y014390D02*
X003821Y014390D01*
X003663Y014548D02*
X002375Y014548D01*
X002521Y014707D02*
X003504Y014707D01*
X003346Y014865D02*
X003189Y014865D01*
X002711Y014865D02*
X002679Y014865D01*
X003250Y015499D02*
X007555Y015499D01*
X007615Y015658D02*
X003250Y015658D01*
X003328Y015816D02*
X003885Y015816D01*
X003808Y015975D02*
X003345Y015975D01*
X003296Y016133D02*
X003693Y016133D01*
X003582Y016292D02*
X003121Y016292D01*
X003287Y016450D02*
X002875Y016450D01*
X002875Y016609D02*
X003106Y016609D01*
X003055Y016767D02*
X002875Y016767D01*
X002875Y016926D02*
X003070Y016926D01*
X003150Y017084D02*
X002875Y017084D01*
X002875Y017243D02*
X003150Y017243D01*
X003150Y017401D02*
X002875Y017401D01*
X002875Y017560D02*
X003150Y017560D01*
X003150Y017718D02*
X002875Y017718D01*
X002875Y017877D02*
X003217Y017877D01*
X004707Y016133D02*
X005596Y016133D01*
X005728Y015975D02*
X004592Y015975D01*
X004515Y015816D02*
X007838Y015816D01*
X008062Y015816D02*
X008657Y015816D01*
X008815Y015975D02*
X006172Y015975D01*
X005285Y016292D02*
X004818Y016292D01*
X004845Y016450D02*
X005162Y016450D01*
X004036Y015024D02*
X007162Y015024D01*
X007150Y014865D02*
X004194Y014865D01*
X004353Y014707D02*
X007150Y014707D01*
X007150Y014548D02*
X004511Y014548D01*
X004670Y014390D02*
X007150Y014390D01*
X007150Y014231D02*
X004828Y014231D01*
X005047Y014073D02*
X007150Y014073D01*
X007150Y013914D02*
X005280Y013914D01*
X005345Y013756D02*
X007150Y013756D01*
X007150Y013597D02*
X005341Y013597D01*
X005262Y013439D02*
X007150Y013439D01*
X007623Y012329D02*
X007652Y012329D01*
X007998Y012329D02*
X008027Y012329D01*
X008373Y012329D02*
X008402Y012329D01*
X008748Y012329D02*
X008777Y012329D01*
X009123Y012329D02*
X010670Y012329D01*
X010828Y012488D02*
X009296Y012488D01*
X009345Y012646D02*
X010987Y012646D01*
X011145Y012805D02*
X009328Y012805D01*
X009250Y012963D02*
X011304Y012963D01*
X011400Y013122D02*
X009250Y013122D01*
X009250Y013280D02*
X011400Y013280D01*
X011400Y013439D02*
X009250Y013439D01*
X009250Y013597D02*
X011400Y013597D01*
X011400Y013756D02*
X009250Y013756D01*
X009250Y013914D02*
X011333Y013914D01*
X011305Y014073D02*
X009250Y014073D01*
X009250Y014231D02*
X011343Y014231D01*
X011471Y014390D02*
X010463Y014390D01*
X010571Y014548D02*
X011788Y014548D01*
X011929Y014390D02*
X011946Y014390D01*
X012057Y014231D02*
X012105Y014231D01*
X012095Y014073D02*
X012194Y014073D01*
X012287Y013914D02*
X012067Y013914D01*
X012000Y013756D02*
X013525Y013756D01*
X013525Y013914D02*
X013363Y013914D01*
X013456Y014073D02*
X013525Y014073D01*
X013525Y014231D02*
X013470Y014231D01*
X013418Y014390D02*
X013525Y014390D01*
X013525Y014548D02*
X013446Y014548D01*
X013470Y014707D02*
X013525Y014707D01*
X013525Y014865D02*
X013428Y014865D01*
X013436Y015024D02*
X013525Y015024D01*
X013525Y015182D02*
X013470Y015182D01*
X013438Y015341D02*
X013525Y015341D01*
X013525Y015499D02*
X013426Y015499D01*
X013470Y015658D02*
X013525Y015658D01*
X013525Y015816D02*
X013448Y015816D01*
X013415Y015975D02*
X013525Y015975D01*
X013525Y016133D02*
X013470Y016133D01*
X013458Y016292D02*
X013525Y016292D01*
X013525Y016450D02*
X013399Y016450D01*
X013470Y016609D02*
X013525Y016609D01*
X013525Y016767D02*
X013469Y016767D01*
X013525Y016926D02*
X013393Y016926D01*
X013461Y017084D02*
X013525Y017084D01*
X013525Y017243D02*
X013470Y017243D01*
X013413Y017401D02*
X013525Y017401D01*
X013525Y017560D02*
X013375Y017560D01*
X013375Y017718D02*
X013525Y017718D01*
X013525Y017877D02*
X013375Y017877D01*
X013375Y018035D02*
X013525Y018035D01*
X013525Y018194D02*
X013375Y018194D01*
X013375Y018352D02*
X013525Y018352D01*
X013525Y018511D02*
X013375Y018511D01*
X013375Y018669D02*
X013525Y018669D01*
X013525Y018828D02*
X013341Y018828D01*
X013198Y018986D02*
X013525Y018986D01*
X013525Y019145D02*
X013040Y019145D01*
X013452Y019303D02*
X010810Y019303D01*
X010590Y019303D02*
X010573Y019303D01*
X011035Y019462D02*
X013430Y019462D01*
X013474Y019620D02*
X011944Y019620D01*
X012063Y019779D02*
X013622Y019779D01*
X014028Y019779D02*
X015870Y019779D01*
X015870Y019937D02*
X012095Y019937D01*
X012061Y020096D02*
X015870Y020096D01*
X015870Y020254D02*
X011940Y020254D01*
X011647Y020413D02*
X015870Y020413D01*
X015870Y019620D02*
X014176Y019620D01*
X014220Y019462D02*
X015870Y019462D01*
X015870Y019303D02*
X014198Y019303D01*
X014125Y019145D02*
X015870Y019145D01*
X015870Y018986D02*
X014125Y018986D01*
X014125Y018828D02*
X014534Y018828D01*
X014443Y018669D02*
X014125Y018669D01*
X014125Y018511D02*
X014351Y018511D01*
X014193Y018352D02*
X014125Y018352D01*
X014953Y017560D02*
X015213Y017560D01*
X015213Y017718D02*
X015163Y017718D01*
X015220Y017877D02*
X015243Y017877D01*
X015211Y018035D02*
X015303Y018035D01*
X015440Y018194D02*
X015125Y018194D01*
X015166Y018352D02*
X015870Y018352D01*
X015870Y018511D02*
X015220Y018511D01*
X015207Y018669D02*
X015870Y018669D01*
X015870Y018828D02*
X015116Y018828D01*
X015163Y017401D02*
X015245Y017401D01*
X015245Y017243D02*
X015220Y017243D01*
X015211Y017084D02*
X015245Y017084D01*
X015245Y016926D02*
X015143Y016926D01*
X015219Y016767D02*
X015245Y016767D01*
X015245Y016609D02*
X015220Y016609D01*
X015245Y016450D02*
X015149Y016450D01*
X015125Y016292D02*
X015213Y016292D01*
X015213Y016133D02*
X015125Y016133D01*
X015125Y015975D02*
X015243Y015975D01*
X015302Y015816D02*
X015125Y015816D01*
X015125Y015658D02*
X015439Y015658D01*
X015125Y015499D02*
X015870Y015499D01*
X015870Y015341D02*
X015125Y015341D01*
X015125Y015182D02*
X015870Y015182D01*
X015870Y015024D02*
X015125Y015024D01*
X015125Y014865D02*
X015870Y014865D01*
X015870Y014707D02*
X015125Y014707D01*
X015125Y014548D02*
X015870Y014548D01*
X015870Y014390D02*
X015125Y014390D01*
X015125Y014231D02*
X015870Y014231D01*
X015870Y014073D02*
X015125Y014073D01*
X015125Y013914D02*
X015870Y013914D01*
X015870Y013756D02*
X015125Y013756D01*
X015125Y013597D02*
X015870Y013597D01*
X015870Y013439D02*
X015125Y013439D01*
X015125Y013280D02*
X015870Y013280D01*
X015870Y013122D02*
X015125Y013122D01*
X015125Y012963D02*
X015870Y012963D01*
X015870Y012805D02*
X015125Y012805D01*
X015125Y012646D02*
X015870Y012646D01*
X015870Y012488D02*
X015120Y012488D01*
X015018Y012329D02*
X015870Y012329D01*
X015870Y012171D02*
X014860Y012171D01*
X014701Y012012D02*
X015870Y012012D01*
X015870Y011854D02*
X014543Y011854D01*
X014384Y011695D02*
X015870Y011695D01*
X015870Y011537D02*
X014226Y011537D01*
X014067Y011378D02*
X014959Y011378D01*
X015441Y011378D02*
X015870Y011378D01*
X015870Y011220D02*
X015561Y011220D01*
X015595Y011061D02*
X015870Y011061D01*
X015870Y010903D02*
X015562Y010903D01*
X015443Y010744D02*
X015870Y010744D01*
X015870Y010586D02*
X015336Y010586D01*
X015251Y010427D02*
X015823Y010427D01*
X015685Y010269D02*
X015095Y010269D01*
X015045Y010110D02*
X015546Y010110D01*
X015407Y009952D02*
X014867Y009952D01*
X014819Y009793D02*
X015269Y009793D01*
X015130Y009635D02*
X014708Y009635D01*
X014593Y009476D02*
X014991Y009476D01*
X014853Y009318D02*
X014516Y009318D01*
X014345Y009159D02*
X014714Y009159D01*
X014575Y009001D02*
X014301Y009001D01*
X014436Y008842D02*
X014154Y008842D01*
X014025Y008684D02*
X014298Y008684D01*
X014169Y008525D02*
X014025Y008525D01*
X014025Y008367D02*
X014116Y008367D01*
X014120Y008208D02*
X014025Y008208D01*
X014025Y008050D02*
X014120Y008050D01*
X014120Y007891D02*
X014025Y007891D01*
X014025Y007733D02*
X014120Y007733D01*
X014120Y007574D02*
X014025Y007574D01*
X014025Y007416D02*
X014120Y007416D01*
X014120Y007257D02*
X014025Y007257D01*
X014025Y007099D02*
X014120Y007099D01*
X014120Y006940D02*
X014025Y006940D01*
X014025Y006782D02*
X014120Y006782D01*
X014120Y006623D02*
X014025Y006623D01*
X014025Y006465D02*
X014120Y006465D01*
X014120Y006306D02*
X014025Y006306D01*
X014025Y006148D02*
X014120Y006148D01*
X014120Y005989D02*
X014025Y005989D01*
X014025Y005831D02*
X014120Y005831D01*
X014120Y005672D02*
X014025Y005672D01*
X014025Y005514D02*
X014120Y005514D01*
X014120Y005355D02*
X014025Y005355D01*
X010900Y007809D02*
X010576Y007485D01*
X010015Y007485D01*
X009905Y007439D01*
X009701Y007235D01*
X009345Y007235D01*
X009345Y007389D01*
X009285Y007534D01*
X009250Y007569D01*
X009250Y010426D01*
X009285Y010461D01*
X009345Y010606D01*
X009345Y010764D01*
X009295Y010885D01*
X011226Y010885D01*
X010946Y010605D01*
X010900Y010495D01*
X010900Y007809D01*
X010900Y007891D02*
X009250Y007891D01*
X009250Y007733D02*
X010823Y007733D01*
X010665Y007574D02*
X009250Y007574D01*
X009334Y007416D02*
X009881Y007416D01*
X009723Y007257D02*
X009345Y007257D01*
X009250Y008050D02*
X010900Y008050D01*
X010900Y008208D02*
X009250Y008208D01*
X009250Y008367D02*
X010900Y008367D01*
X010900Y008525D02*
X009250Y008525D01*
X009250Y008684D02*
X010900Y008684D01*
X010900Y008842D02*
X009250Y008842D01*
X009250Y009001D02*
X010900Y009001D01*
X010900Y009159D02*
X009250Y009159D01*
X009250Y009318D02*
X010900Y009318D01*
X010900Y009476D02*
X009250Y009476D01*
X009250Y009635D02*
X010900Y009635D01*
X010900Y009793D02*
X009250Y009793D01*
X009250Y009952D02*
X010900Y009952D01*
X010900Y010110D02*
X009250Y010110D01*
X009250Y010269D02*
X010900Y010269D01*
X010900Y010427D02*
X009251Y010427D01*
X009336Y010586D02*
X010938Y010586D01*
X011085Y010744D02*
X009345Y010744D01*
X011677Y012488D02*
X011846Y012488D01*
X011835Y012646D02*
X011979Y012646D01*
X011971Y012805D02*
X013145Y012805D01*
X013304Y012963D02*
X012000Y012963D01*
X012000Y013122D02*
X013462Y013122D01*
X013525Y013280D02*
X012000Y013280D01*
X012000Y013439D02*
X013525Y013439D01*
X013525Y013597D02*
X012000Y013597D01*
X012421Y012646D02*
X012987Y012646D01*
X012828Y012488D02*
X012554Y012488D01*
X012595Y012329D02*
X012670Y012329D01*
X011629Y014707D02*
X010595Y014707D01*
X010553Y014865D02*
X011471Y014865D01*
X011312Y015024D02*
X010561Y015024D01*
X010595Y015182D02*
X011154Y015182D01*
X011039Y015341D02*
X010563Y015341D01*
X010551Y015499D02*
X011025Y015499D01*
X011025Y015658D02*
X010595Y015658D01*
X010573Y015816D02*
X011025Y015816D01*
X011025Y015975D02*
X010469Y015975D01*
X010282Y016292D02*
X011025Y016292D01*
X011025Y016450D02*
X010524Y016450D01*
X010595Y016609D02*
X011025Y016609D01*
X010944Y016767D02*
X010594Y016767D01*
X010118Y016292D02*
X009981Y016292D01*
X009822Y016133D02*
X011025Y016133D01*
X009608Y016767D02*
X008831Y016767D01*
X008673Y016609D02*
X009449Y016609D01*
X009291Y016450D02*
X008514Y016450D01*
X008356Y016292D02*
X009132Y016292D01*
X008974Y016133D02*
X008197Y016133D01*
X008285Y015658D02*
X008498Y015658D01*
X007431Y015341D02*
X003719Y015341D01*
X003877Y015182D02*
X007273Y015182D01*
X006811Y020096D02*
X006765Y020096D01*
X006660Y020254D02*
X006970Y020254D01*
X007128Y020413D02*
X006501Y020413D01*
X005949Y020413D02*
X005501Y020413D01*
X005660Y020254D02*
X005790Y020254D01*
X004949Y020413D02*
X004501Y020413D01*
X004660Y020254D02*
X004790Y020254D01*
X003949Y020413D02*
X003501Y020413D01*
X003660Y020254D02*
X003790Y020254D01*
X011444Y019620D02*
X011456Y019620D01*
X005488Y006148D02*
X003845Y006148D01*
X003796Y005989D02*
X005330Y005989D01*
D13*
X003700Y006560D03*
X003450Y006185D03*
X003200Y005810D03*
X003200Y005435D03*
X002700Y008935D03*
X002450Y011185D03*
X002700Y011560D03*
X002950Y011935D03*
X003200Y012310D03*
X004950Y013685D03*
X004950Y015310D03*
X004200Y016060D03*
X003950Y016435D03*
X004450Y016435D03*
X004950Y016935D03*
X005325Y016810D03*
X005575Y016560D03*
X005950Y016310D03*
X007950Y015435D03*
X007825Y012685D03*
X007450Y012685D03*
X006825Y012435D03*
X008200Y012685D03*
X008575Y012685D03*
X008950Y012685D03*
X010200Y014685D03*
X010200Y015185D03*
X010200Y015685D03*
X010200Y016685D03*
X009450Y019185D03*
X010200Y019435D03*
X010700Y019685D03*
X011200Y019935D03*
X011700Y019935D03*
X013075Y017185D03*
X013075Y016685D03*
X013075Y016185D03*
X013075Y015685D03*
X013075Y015185D03*
X013075Y014685D03*
X013075Y014185D03*
X012575Y014185D03*
X011700Y014060D03*
X010825Y014060D03*
X012200Y012310D03*
X011575Y011935D03*
X011825Y011560D03*
X010200Y010185D03*
X008950Y010685D03*
X008575Y010685D03*
X008200Y010685D03*
X007825Y010685D03*
X007450Y010685D03*
X007075Y009435D03*
X005950Y010685D03*
X008575Y007185D03*
X008950Y007310D03*
X008200Y007060D03*
X007825Y006935D03*
X007450Y006810D03*
X013950Y009185D03*
X014200Y009560D03*
X014450Y009935D03*
X014700Y010310D03*
X014950Y010685D03*
X015200Y011060D03*
X014825Y016685D03*
X014825Y017185D03*
X014825Y017935D03*
X014825Y018560D03*
X013825Y019435D03*
X015575Y020310D03*
X003450Y016810D03*
X002950Y015935D03*
X002950Y015185D03*
D14*
X002950Y015935D01*
X002325Y015310D02*
X002325Y018310D01*
X002575Y018560D01*
X006825Y018560D01*
X007700Y019435D01*
X010200Y019435D01*
X010700Y019685D02*
X007575Y019685D01*
X006700Y018810D01*
X002325Y018810D01*
X002075Y018560D01*
X002075Y015435D01*
X001575Y014935D01*
X001575Y010810D01*
X003200Y009185D01*
X003200Y005810D01*
X003450Y006185D02*
X003450Y009310D01*
X001825Y010935D01*
X001825Y014810D01*
X002325Y015310D01*
X002575Y015185D02*
X002575Y018060D01*
X002825Y018310D01*
X006950Y018310D01*
X007825Y019185D01*
X009450Y019185D01*
X008450Y017935D02*
X011700Y017935D01*
X012075Y017560D01*
X012075Y016185D01*
X013075Y015185D01*
X013075Y014685D02*
X011825Y015935D01*
X011825Y017310D01*
X011450Y017685D01*
X008575Y017685D01*
X007700Y016810D01*
X005325Y016810D01*
X005575Y016560D02*
X007825Y016560D01*
X008700Y017435D01*
X011200Y017435D01*
X011575Y017060D01*
X011575Y015685D01*
X013075Y014185D01*
X012575Y014185D02*
X011325Y015435D01*
X011325Y016810D01*
X010950Y017185D01*
X008825Y017185D01*
X007950Y016310D01*
X005950Y016310D01*
X005075Y017060D02*
X004950Y016935D01*
X005075Y017060D02*
X007575Y017060D01*
X008450Y017935D01*
X008325Y018185D02*
X011825Y018185D01*
X012325Y017685D01*
X012325Y016435D01*
X013075Y015685D01*
X013075Y016185D02*
X012575Y016685D01*
X012575Y017935D01*
X012075Y018435D01*
X008200Y018435D01*
X007325Y017560D01*
X004450Y017560D01*
X004200Y017310D01*
X004200Y016060D01*
X003950Y016435D02*
X003950Y017560D01*
X004200Y017810D01*
X007200Y017810D01*
X008075Y018685D01*
X012450Y018685D01*
X012825Y018310D01*
X012825Y016935D01*
X013075Y016685D01*
X013075Y017185D02*
X013075Y018685D01*
X012825Y018935D01*
X007950Y018935D01*
X007075Y018060D01*
X003825Y018060D01*
X003450Y017685D01*
X003450Y016810D01*
X004450Y017060D02*
X004450Y016435D01*
X004450Y017060D02*
X004700Y017310D01*
X007450Y017310D01*
X008325Y018185D01*
X007450Y019935D02*
X011200Y019935D01*
X011450Y020185D02*
X011700Y019935D01*
X011450Y020185D02*
X007325Y020185D01*
X006450Y019310D01*
X001825Y019310D01*
X001575Y019060D01*
X001575Y015685D01*
X001075Y015185D01*
X001075Y010560D01*
X002700Y008935D01*
X002950Y009060D02*
X002950Y005685D01*
X003200Y005435D01*
X003700Y005185D02*
X003950Y005435D01*
X004575Y005435D01*
X004825Y005685D01*
X005450Y005685D01*
X005700Y005935D01*
X006325Y005935D01*
X006575Y006185D01*
X007200Y006185D01*
X007450Y006435D01*
X008075Y006435D01*
X008325Y006685D01*
X008950Y006685D01*
X009200Y006935D01*
X009825Y006935D01*
X010075Y007185D01*
X010700Y007185D01*
X011200Y007685D01*
X011200Y010435D01*
X013825Y013060D01*
X013825Y019435D01*
X014825Y018560D02*
X014075Y017810D01*
X014075Y012935D01*
X011450Y010310D01*
X011450Y007435D01*
X011200Y007185D01*
X011075Y007185D01*
X010825Y006935D01*
X010200Y006935D01*
X009950Y006685D01*
X009325Y006685D01*
X009075Y006435D01*
X008450Y006435D01*
X008200Y006185D01*
X007575Y006185D01*
X007325Y005935D01*
X006700Y005935D01*
X006450Y005685D01*
X005825Y005685D01*
X005575Y005435D01*
X004950Y005435D01*
X004725Y005210D01*
X004725Y003800D01*
X003725Y003800D02*
X003700Y003825D01*
X003700Y005185D01*
X003700Y006560D02*
X003700Y009435D01*
X002075Y011060D01*
X002075Y014685D01*
X002575Y015185D01*
X002950Y015185D02*
X003450Y015185D01*
X004950Y013685D01*
X003575Y011935D02*
X003200Y012310D01*
X002950Y011935D02*
X003200Y011685D01*
X010825Y011685D01*
X011325Y012185D01*
X012075Y012185D01*
X012200Y012310D01*
X011700Y012935D02*
X010700Y011935D01*
X003575Y011935D01*
X002825Y011435D02*
X002700Y011560D01*
X002825Y011435D02*
X011075Y011435D01*
X011575Y011935D01*
X011825Y011560D02*
X011450Y011185D01*
X002450Y011185D01*
X001325Y010685D02*
X002950Y009060D01*
X001325Y010685D02*
X001325Y015060D01*
X001825Y015560D01*
X001825Y018810D01*
X002075Y019060D01*
X006575Y019060D01*
X007450Y019935D01*
X009950Y016685D02*
X010200Y016685D01*
X009950Y016685D02*
X007825Y014560D01*
X007825Y012685D01*
X007450Y012685D02*
X007450Y014935D01*
X007950Y015435D01*
X008200Y014560D02*
X009325Y015685D01*
X010200Y015685D01*
X010200Y015185D02*
X010190Y015175D01*
X009200Y015175D01*
X008575Y014550D01*
X008575Y012685D01*
X008950Y012685D02*
X008950Y014550D01*
X009075Y014675D01*
X010190Y014675D01*
X010200Y014685D01*
X011700Y014060D02*
X011700Y012935D01*
X013700Y011060D02*
X015200Y011060D01*
X014950Y010685D02*
X013700Y010685D01*
X012700Y009685D01*
X012700Y006310D01*
X012325Y005935D01*
X011700Y005935D01*
X011450Y005685D01*
X010825Y005685D01*
X010575Y005435D01*
X009950Y005435D01*
X009725Y005210D01*
X009725Y003800D01*
X008725Y003800D02*
X008725Y005210D01*
X008950Y005435D01*
X009575Y005435D01*
X009825Y005685D01*
X010450Y005685D01*
X010700Y005935D01*
X011325Y005935D01*
X011575Y006185D01*
X012200Y006185D01*
X012450Y006435D01*
X012450Y009810D01*
X013700Y011060D01*
X013700Y010310D02*
X014700Y010310D01*
X014450Y009935D02*
X013700Y009935D01*
X013200Y009435D01*
X013200Y006060D01*
X012575Y005435D01*
X011950Y005435D01*
X011725Y005210D01*
X011725Y003800D01*
X010725Y003800D02*
X010725Y005210D01*
X010950Y005435D01*
X011575Y005435D01*
X011825Y005685D01*
X012450Y005685D01*
X012950Y006185D01*
X012950Y009560D01*
X013700Y010310D01*
X013700Y009560D02*
X014200Y009560D01*
X013950Y009185D02*
X013725Y008960D01*
X013725Y003800D01*
X012725Y003800D02*
X012725Y005210D01*
X013450Y005935D01*
X013450Y009310D01*
X013700Y009560D01*
X012200Y009935D02*
X014825Y012560D01*
X014825Y016685D01*
X014575Y016935D02*
X014825Y017185D01*
X014575Y016935D02*
X014575Y012685D01*
X011950Y010060D01*
X011950Y006935D01*
X011700Y006685D01*
X011325Y006685D01*
X011075Y006435D01*
X010450Y006435D01*
X010200Y006185D01*
X009575Y006185D01*
X009325Y005935D01*
X008700Y005935D01*
X008450Y005685D01*
X007825Y005685D01*
X007575Y005435D01*
X006950Y005435D01*
X006700Y005185D01*
X006700Y003825D01*
X006725Y003800D01*
X007700Y003825D02*
X007700Y005185D01*
X007950Y005435D01*
X008575Y005435D01*
X008825Y005685D01*
X009450Y005685D01*
X009700Y005935D01*
X010325Y005935D01*
X010575Y006185D01*
X011200Y006185D01*
X011450Y006435D01*
X011950Y006435D01*
X012200Y006685D01*
X012200Y009935D01*
X011700Y010185D02*
X014325Y012810D01*
X014325Y017435D01*
X014825Y017935D01*
X011700Y010185D02*
X011700Y007185D01*
X011450Y006935D01*
X011200Y006935D01*
X010950Y006685D01*
X010325Y006685D01*
X010075Y006435D01*
X009450Y006435D01*
X009200Y006185D01*
X008575Y006185D01*
X008325Y005935D01*
X007700Y005935D01*
X007450Y005685D01*
X006825Y005685D01*
X006575Y005435D01*
X005950Y005435D01*
X005725Y005210D01*
X005725Y003800D01*
X007700Y003825D02*
X007725Y003800D01*
X007450Y006810D02*
X007450Y010685D01*
X007825Y010685D02*
X007825Y006935D01*
X008200Y007060D02*
X008200Y010685D01*
X008575Y010685D02*
X008575Y007185D01*
X008950Y007310D02*
X008950Y010685D01*
X008200Y012685D02*
X008200Y014560D01*
M02*
