%
M48
M72
T01C0.0150
T02C0.0315
T03C0.0400
%
T01
X3200Y5435
X3200Y5810
X3450Y6185
X3700Y6560
X2700Y8935
X2450Y11185
X2700Y11560
X2950Y11935
X3200Y12310
X4950Y13685
X4950Y15310
X4200Y16060
X3950Y16435
X4450Y16435
X4950Y16935
X5325Y16810
X5575Y16560
X5950Y16310
X7950Y15435
X7825Y12685
X7450Y12685
X6825Y12435
X8200Y12685
X8575Y12685
X8950Y12685
X10200Y14685
X10200Y15185
X10200Y15685
X10200Y16685
X9450Y19185
X10200Y19435
X10700Y19685
X11200Y19935
X11700Y19935
X13075Y17185
X13075Y16685
X13075Y16185
X13075Y15685
X13075Y15185
X13075Y14685
X13075Y14185
X12575Y14185
X11700Y14060
X10825Y14060
X12200Y12310
X11575Y11935
X11825Y11560
X10200Y10185
X8950Y10685
X8575Y10685
X8200Y10685
X7825Y10685
X7450Y10685
X7075Y9435
X5950Y10685
X8575Y7185
X8950Y7310
X8200Y7060
X7825Y6935
X7450Y6810
X13950Y9185
X14200Y9560
X14450Y9935
X14700Y10310
X14950Y10685
X15200Y11060
X14825Y16685
X14825Y17185
X14825Y17935
X14825Y18560
X13825Y19435
X15575Y20310
X3450Y16810
X2950Y15935
X2950Y15185
T02
X600Y16175
X600Y17675
X15850Y17675
X15850Y16175
T03
X6225Y19925
X5225Y19925
X4225Y19925
X3225Y19925
X2225Y19925
X1225Y19925
M30
