G75*
%MOIN*%
%OFA0B0*%
%FSLAX24Y24*%
%IPPOS*%
%LPD*%
%AMOC8*
5,1,8,0,0,1.08239X$1,22.5*
%
%ADD10R,0.0600X0.2550*%
%ADD11R,0.0591X0.0512*%
%ADD12R,0.0197X0.0709*%
%ADD13R,0.0709X0.0197*%
%ADD14R,0.0236X0.0866*%
%ADD15R,0.0866X0.0236*%
%ADD16OC8,0.0600*%
%ADD17R,0.0790X0.0590*%
%ADD18R,0.0790X0.1500*%
%ADD19R,0.0512X0.0591*%
%ADD20R,0.0460X0.0630*%
%ADD21C,0.0160*%
%ADD22C,0.0310*%
%ADD23C,0.0120*%
D10*
X002725Y003800D03*
X003725Y003800D03*
X004725Y003800D03*
X005725Y003800D03*
X006725Y003800D03*
X007725Y003800D03*
X008725Y003800D03*
X009725Y003800D03*
X010725Y003800D03*
X011725Y003800D03*
X012725Y003800D03*
X013725Y003800D03*
D11*
X011225Y010340D03*
X011225Y011010D03*
D12*
G36*
X007617Y016603D02*
X007755Y016465D01*
X007255Y015965D01*
X007117Y016103D01*
X007617Y016603D01*
G37*
G36*
X007394Y016825D02*
X007532Y016687D01*
X007032Y016187D01*
X006894Y016325D01*
X007394Y016825D01*
G37*
G36*
X007171Y017048D02*
X007309Y016910D01*
X006809Y016410D01*
X006671Y016548D01*
X007171Y017048D01*
G37*
G36*
X006949Y017271D02*
X007087Y017133D01*
X006587Y016633D01*
X006449Y016771D01*
X006949Y017271D01*
G37*
G36*
X006726Y017493D02*
X006864Y017355D01*
X006364Y016855D01*
X006226Y016993D01*
X006726Y017493D01*
G37*
G36*
X006503Y017716D02*
X006641Y017578D01*
X006141Y017078D01*
X006003Y017216D01*
X006503Y017716D01*
G37*
G36*
X006280Y017939D02*
X006418Y017801D01*
X005918Y017301D01*
X005780Y017439D01*
X006280Y017939D01*
G37*
G36*
X006058Y018162D02*
X006196Y018024D01*
X005696Y017524D01*
X005558Y017662D01*
X006058Y018162D01*
G37*
G36*
X005835Y018384D02*
X005973Y018246D01*
X005473Y017746D01*
X005335Y017884D01*
X005835Y018384D01*
G37*
G36*
X005612Y018607D02*
X005750Y018469D01*
X005250Y017969D01*
X005112Y018107D01*
X005612Y018607D01*
G37*
G36*
X005390Y018830D02*
X005528Y018692D01*
X005028Y018192D01*
X004890Y018330D01*
X005390Y018830D01*
G37*
G36*
X002494Y015044D02*
X002632Y014906D01*
X002132Y014406D01*
X001994Y014544D01*
X002494Y015044D01*
G37*
G36*
X002272Y015266D02*
X002410Y015128D01*
X001910Y014628D01*
X001772Y014766D01*
X002272Y015266D01*
G37*
G36*
X002049Y015489D02*
X002187Y015351D01*
X001687Y014851D01*
X001549Y014989D01*
X002049Y015489D01*
G37*
G36*
X002717Y014821D02*
X002855Y014683D01*
X002355Y014183D01*
X002217Y014321D01*
X002717Y014821D01*
G37*
G36*
X002940Y014598D02*
X003078Y014460D01*
X002578Y013960D01*
X002440Y014098D01*
X002940Y014598D01*
G37*
G36*
X003162Y014375D02*
X003300Y014237D01*
X002800Y013737D01*
X002662Y013875D01*
X003162Y014375D01*
G37*
G36*
X003385Y014153D02*
X003523Y014015D01*
X003023Y013515D01*
X002885Y013653D01*
X003385Y014153D01*
G37*
G36*
X003608Y013930D02*
X003746Y013792D01*
X003246Y013292D01*
X003108Y013430D01*
X003608Y013930D01*
G37*
G36*
X003831Y013707D02*
X003969Y013569D01*
X003469Y013069D01*
X003331Y013207D01*
X003831Y013707D01*
G37*
G36*
X004053Y013485D02*
X004191Y013347D01*
X003691Y012847D01*
X003553Y012985D01*
X004053Y013485D01*
G37*
G36*
X004276Y013262D02*
X004414Y013124D01*
X003914Y012624D01*
X003776Y012762D01*
X004276Y013262D01*
G37*
D13*
G36*
X005028Y013262D02*
X005528Y012762D01*
X005390Y012624D01*
X004890Y013124D01*
X005028Y013262D01*
G37*
G36*
X005250Y013485D02*
X005750Y012985D01*
X005612Y012847D01*
X005112Y013347D01*
X005250Y013485D01*
G37*
G36*
X005473Y013707D02*
X005973Y013207D01*
X005835Y013069D01*
X005335Y013569D01*
X005473Y013707D01*
G37*
G36*
X005696Y013930D02*
X006196Y013430D01*
X006058Y013292D01*
X005558Y013792D01*
X005696Y013930D01*
G37*
G36*
X005918Y014153D02*
X006418Y013653D01*
X006280Y013515D01*
X005780Y014015D01*
X005918Y014153D01*
G37*
G36*
X006141Y014375D02*
X006641Y013875D01*
X006503Y013737D01*
X006003Y014237D01*
X006141Y014375D01*
G37*
G36*
X006364Y014598D02*
X006864Y014098D01*
X006726Y013960D01*
X006226Y014460D01*
X006364Y014598D01*
G37*
G36*
X006587Y014821D02*
X007087Y014321D01*
X006949Y014183D01*
X006449Y014683D01*
X006587Y014821D01*
G37*
G36*
X006809Y015044D02*
X007309Y014544D01*
X007171Y014406D01*
X006671Y014906D01*
X006809Y015044D01*
G37*
G36*
X007032Y015266D02*
X007532Y014766D01*
X007394Y014628D01*
X006894Y015128D01*
X007032Y015266D01*
G37*
G36*
X007255Y015489D02*
X007755Y014989D01*
X007617Y014851D01*
X007117Y015351D01*
X007255Y015489D01*
G37*
G36*
X003914Y018830D02*
X004414Y018330D01*
X004276Y018192D01*
X003776Y018692D01*
X003914Y018830D01*
G37*
G36*
X003691Y018607D02*
X004191Y018107D01*
X004053Y017969D01*
X003553Y018469D01*
X003691Y018607D01*
G37*
G36*
X003469Y018384D02*
X003969Y017884D01*
X003831Y017746D01*
X003331Y018246D01*
X003469Y018384D01*
G37*
G36*
X003246Y018162D02*
X003746Y017662D01*
X003608Y017524D01*
X003108Y018024D01*
X003246Y018162D01*
G37*
G36*
X003023Y017939D02*
X003523Y017439D01*
X003385Y017301D01*
X002885Y017801D01*
X003023Y017939D01*
G37*
G36*
X002800Y017716D02*
X003300Y017216D01*
X003162Y017078D01*
X002662Y017578D01*
X002800Y017716D01*
G37*
G36*
X002578Y017493D02*
X003078Y016993D01*
X002940Y016855D01*
X002440Y017355D01*
X002578Y017493D01*
G37*
G36*
X002355Y017271D02*
X002855Y016771D01*
X002717Y016633D01*
X002217Y017133D01*
X002355Y017271D01*
G37*
G36*
X002132Y017048D02*
X002632Y016548D01*
X002494Y016410D01*
X001994Y016910D01*
X002132Y017048D01*
G37*
G36*
X001910Y016825D02*
X002410Y016325D01*
X002272Y016187D01*
X001772Y016687D01*
X001910Y016825D01*
G37*
G36*
X001687Y016603D02*
X002187Y016103D01*
X002049Y015965D01*
X001549Y016465D01*
X001687Y016603D01*
G37*
D14*
X010225Y018392D03*
X010725Y018392D03*
X011225Y018392D03*
X011725Y018392D03*
X012225Y018392D03*
X012725Y018392D03*
X013225Y018392D03*
X013225Y012958D03*
X012725Y012958D03*
X012225Y012958D03*
X011725Y012958D03*
X011225Y012958D03*
X010725Y012958D03*
X010225Y012958D03*
D15*
X009481Y013675D03*
X009481Y014175D03*
X009481Y014675D03*
X009481Y015175D03*
X009481Y015675D03*
X009481Y016175D03*
X009481Y016675D03*
X009481Y017175D03*
X009481Y017675D03*
X013969Y017675D03*
X013969Y017175D03*
X013969Y016675D03*
X013969Y016175D03*
X013969Y015675D03*
X013969Y015175D03*
X013969Y014675D03*
X013969Y014175D03*
X013969Y013675D03*
D16*
X006225Y019925D03*
X005225Y019925D03*
X004225Y019925D03*
X003225Y019925D03*
X002225Y019925D03*
X001225Y019925D03*
D17*
X007735Y009815D03*
X007735Y008915D03*
X007735Y008015D03*
D18*
X010215Y008925D03*
D19*
X006560Y008925D03*
X005890Y008925D03*
X005890Y007800D03*
X006560Y007800D03*
X006560Y010050D03*
X005890Y010050D03*
X005890Y011175D03*
X006560Y011175D03*
X004635Y011195D03*
X003965Y011195D03*
X003965Y010070D03*
X004635Y010070D03*
X001810Y013175D03*
X001140Y013175D03*
X001340Y018820D03*
X002010Y018820D03*
D20*
X004050Y008925D03*
X004650Y008925D03*
D21*
X005120Y008562D02*
X005083Y008474D01*
X005016Y008407D01*
X004928Y008370D01*
X004372Y008370D01*
X004284Y008407D01*
X004261Y008430D01*
X004085Y008430D01*
X004085Y008890D01*
X004015Y008890D01*
X004015Y008430D01*
X003796Y008430D01*
X003751Y008442D01*
X003709Y008466D01*
X003676Y008499D01*
X003652Y008541D01*
X003640Y008586D01*
X003640Y008890D01*
X004015Y008890D01*
X004015Y008960D01*
X004015Y009420D01*
X003796Y009420D01*
X003751Y009408D01*
X003709Y009384D01*
X003676Y009351D01*
X003652Y009309D01*
X003640Y009264D01*
X003640Y008960D01*
X004015Y008960D01*
X004085Y008960D01*
X004085Y009420D01*
X004261Y009420D01*
X004284Y009443D01*
X004372Y009480D01*
X004821Y009480D01*
X004875Y009535D01*
X004331Y009535D01*
X004243Y009571D01*
X004219Y009595D01*
X004013Y009595D01*
X004013Y010022D01*
X003917Y010022D01*
X003529Y010022D01*
X003529Y009751D01*
X003542Y009705D01*
X003565Y009664D01*
X003599Y009631D01*
X003640Y009607D01*
X003686Y009595D01*
X003917Y009595D01*
X003917Y010022D01*
X003917Y010118D01*
X003529Y010118D01*
X003529Y010389D01*
X003542Y010435D01*
X003565Y010476D01*
X003599Y010509D01*
X003640Y010533D01*
X003686Y010545D01*
X003917Y010545D01*
X003917Y010118D01*
X004013Y010118D01*
X004013Y010545D01*
X004219Y010545D01*
X004243Y010569D01*
X004331Y010605D01*
X004335Y010605D01*
X004335Y010660D01*
X004331Y010660D01*
X004300Y010673D01*
X004269Y010660D01*
X003662Y010660D01*
X003573Y010696D01*
X003506Y010764D01*
X003469Y010852D01*
X003469Y011538D01*
X003506Y011626D01*
X003573Y011694D01*
X003662Y011730D01*
X003665Y011730D01*
X003665Y012532D01*
X003664Y012533D01*
X003573Y012442D01*
X003595Y012389D01*
X003595Y012231D01*
X003535Y012086D01*
X003424Y011975D01*
X003345Y011943D01*
X003345Y011856D01*
X003285Y011711D01*
X003174Y011600D01*
X003095Y011568D01*
X003095Y011481D01*
X003035Y011336D01*
X002924Y011225D01*
X002845Y011193D01*
X002845Y011106D01*
X002785Y010961D01*
X002674Y010850D01*
X002529Y010790D01*
X002371Y010790D01*
X002226Y010850D01*
X002115Y010961D01*
X002055Y011106D01*
X002055Y011264D01*
X002115Y011409D01*
X002150Y011444D01*
X002150Y012655D01*
X002113Y012640D01*
X001506Y012640D01*
X001418Y012676D01*
X001394Y012700D01*
X001188Y012700D01*
X001188Y013127D01*
X001092Y013127D01*
X000704Y013127D01*
X000704Y012856D01*
X000717Y012810D01*
X000740Y012769D01*
X000774Y012736D01*
X000815Y012712D01*
X000861Y012700D01*
X001092Y012700D01*
X001092Y013127D01*
X001092Y013223D01*
X000704Y013223D01*
X000704Y013494D01*
X000717Y013540D01*
X000740Y013581D01*
X000774Y013614D01*
X000815Y013638D01*
X000861Y013650D01*
X001092Y013650D01*
X001092Y013223D01*
X001188Y013223D01*
X001188Y013650D01*
X001394Y013650D01*
X001418Y013674D01*
X001506Y013710D01*
X001510Y013710D01*
X001510Y013835D01*
X001555Y013945D01*
X001640Y014030D01*
X001946Y014336D01*
X001935Y014347D01*
X001989Y014400D01*
X001935Y014347D01*
X001895Y014387D01*
X001862Y014387D01*
X001774Y014424D01*
X001567Y014630D01*
X001562Y014642D01*
X001551Y014646D01*
X001344Y014853D01*
X001308Y014941D01*
X001308Y015037D01*
X001344Y015125D01*
X001913Y015694D01*
X001993Y015727D01*
X001913Y015760D01*
X001344Y016329D01*
X001308Y016417D01*
X001308Y016512D01*
X001344Y016600D01*
X001551Y016807D01*
X001562Y016812D01*
X001567Y016823D01*
X001774Y017030D01*
X001785Y017035D01*
X001790Y017046D01*
X001996Y017253D01*
X002008Y017257D01*
X002012Y017269D01*
X002219Y017475D01*
X002230Y017480D01*
X002235Y017491D01*
X002442Y017698D01*
X002530Y017735D01*
X002563Y017735D01*
X002604Y017775D01*
X002657Y017721D01*
X002657Y017721D01*
X002657Y017721D01*
X002604Y017775D01*
X002644Y017815D01*
X002644Y017849D01*
X002681Y017937D01*
X002794Y018051D01*
X002463Y018382D01*
X002401Y018321D01*
X002313Y018285D01*
X001706Y018285D01*
X001618Y018321D01*
X001594Y018345D01*
X001388Y018345D01*
X001388Y018772D01*
X001292Y018772D01*
X000904Y018772D01*
X000904Y018501D01*
X000917Y018455D01*
X000940Y018414D01*
X000974Y018381D01*
X001015Y018357D01*
X001061Y018345D01*
X001292Y018345D01*
X001292Y018772D01*
X001292Y018868D01*
X000904Y018868D01*
X000904Y019139D01*
X000917Y019185D01*
X000940Y019226D01*
X000974Y019259D01*
X001015Y019283D01*
X001061Y019295D01*
X001292Y019295D01*
X001292Y018868D01*
X001388Y018868D01*
X001388Y019295D01*
X001430Y019295D01*
X001341Y019385D01*
X001001Y019385D01*
X000685Y019701D01*
X000685Y020149D01*
X001001Y020465D01*
X001449Y020465D01*
X001765Y020149D01*
X001765Y020144D01*
X002026Y020405D01*
X002205Y020405D01*
X002205Y019945D01*
X002245Y019945D01*
X002245Y020405D01*
X002424Y020405D01*
X002460Y020369D01*
X002661Y020570D01*
X000580Y020570D01*
X000580Y018312D01*
X000727Y018312D01*
X000805Y018280D01*
X000820Y018280D01*
X000997Y018207D01*
X001132Y018072D01*
X001205Y017895D01*
X001205Y017880D01*
X001237Y017802D01*
X001237Y017548D01*
X001205Y017470D01*
X001205Y016380D01*
X001237Y016302D01*
X001237Y016048D01*
X001205Y015970D01*
X001205Y015955D01*
X001132Y015778D01*
X000997Y015643D01*
X000820Y015570D01*
X000805Y015570D01*
X000727Y015538D01*
X000580Y015538D01*
X000580Y010480D01*
X002201Y008628D01*
X002257Y008572D01*
X002263Y008557D01*
X002274Y008544D01*
X002300Y008469D01*
X002330Y008395D01*
X002330Y008379D01*
X002335Y008363D01*
X002330Y008284D01*
X002330Y005295D01*
X002377Y005315D01*
X002425Y005315D01*
X002425Y008651D01*
X002365Y008711D01*
X002305Y008856D01*
X002305Y009014D01*
X002365Y009159D01*
X002476Y009270D01*
X002621Y009330D01*
X002779Y009330D01*
X002924Y009270D01*
X003035Y009159D01*
X003095Y009014D01*
X003095Y008856D01*
X003035Y008711D01*
X003025Y008701D01*
X003025Y006165D01*
X003055Y006177D01*
X003055Y006264D01*
X003115Y006409D01*
X003226Y006520D01*
X003305Y006552D01*
X003305Y006639D01*
X003365Y006784D01*
X003476Y006895D01*
X003621Y006955D01*
X003779Y006955D01*
X003924Y006895D01*
X003959Y006860D01*
X005510Y006860D01*
X005620Y006814D01*
X005704Y006730D01*
X006979Y005455D01*
X007025Y005345D01*
X007025Y005315D01*
X007073Y005315D01*
X007161Y005278D01*
X007225Y005214D01*
X007289Y005278D01*
X007377Y005315D01*
X007425Y005315D01*
X007425Y006411D01*
X007421Y006415D01*
X007371Y006415D01*
X007226Y006475D01*
X007115Y006586D01*
X007055Y006731D01*
X007055Y006889D01*
X007115Y007034D01*
X007226Y007145D01*
X007371Y007205D01*
X007529Y007205D01*
X007534Y007203D01*
X007601Y007270D01*
X007746Y007330D01*
X007904Y007330D01*
X007909Y007328D01*
X007976Y007395D01*
X008121Y007455D01*
X008279Y007455D01*
X008284Y007453D01*
X008351Y007520D01*
X008496Y007580D01*
X008654Y007580D01*
X008659Y007578D01*
X008726Y007645D01*
X008790Y007671D01*
X008746Y007715D01*
X008370Y007715D01*
X008370Y007672D01*
X008333Y007584D01*
X008266Y007517D01*
X008178Y007480D01*
X007292Y007480D01*
X007204Y007517D01*
X007142Y007578D01*
X007120Y007556D01*
X007056Y007529D01*
X007056Y007457D01*
X007019Y007369D01*
X006951Y007301D01*
X006863Y007265D01*
X006256Y007265D01*
X006168Y007301D01*
X006144Y007325D01*
X005938Y007325D01*
X005938Y007752D01*
X005842Y007752D01*
X005454Y007752D01*
X005454Y007481D01*
X005467Y007435D01*
X005490Y007394D01*
X005524Y007361D01*
X005565Y007337D01*
X005611Y007325D01*
X005842Y007325D01*
X005842Y007752D01*
X005842Y007848D01*
X005454Y007848D01*
X005454Y008119D01*
X005467Y008165D01*
X005490Y008206D01*
X005524Y008239D01*
X005565Y008263D01*
X005611Y008275D01*
X005842Y008275D01*
X005842Y007848D01*
X005938Y007848D01*
X005938Y008275D01*
X006144Y008275D01*
X006168Y008299D01*
X006256Y008335D01*
X006863Y008335D01*
X006951Y008299D01*
X006983Y008267D01*
X006985Y008269D01*
X007095Y008315D01*
X007100Y008315D01*
X007100Y008358D01*
X007137Y008446D01*
X007156Y008465D01*
X007137Y008484D01*
X007100Y008572D01*
X007100Y008615D01*
X007056Y008615D01*
X007056Y008582D01*
X007019Y008494D01*
X006951Y008426D01*
X006863Y008390D01*
X006256Y008390D01*
X006168Y008426D01*
X006144Y008450D01*
X005938Y008450D01*
X005938Y008877D01*
X005842Y008877D01*
X005454Y008877D01*
X005454Y008606D01*
X005467Y008560D01*
X005490Y008519D01*
X005524Y008486D01*
X005565Y008462D01*
X005611Y008450D01*
X005842Y008450D01*
X005842Y008877D01*
X005842Y008973D01*
X005454Y008973D01*
X005454Y009244D01*
X005462Y009273D01*
X005120Y008931D01*
X005120Y008562D01*
X005105Y008525D02*
X005487Y008525D01*
X005454Y008684D02*
X005120Y008684D01*
X005120Y008842D02*
X005454Y008842D01*
X005454Y009001D02*
X005190Y009001D01*
X005348Y009159D02*
X005454Y009159D01*
X005582Y009393D02*
X005589Y009400D01*
X005635Y009510D01*
X005635Y009515D01*
X006194Y009515D01*
X006225Y009528D01*
X006256Y009515D01*
X006260Y009515D01*
X006260Y009460D01*
X006256Y009460D01*
X006168Y009424D01*
X006144Y009400D01*
X005938Y009400D01*
X005938Y008973D01*
X005842Y008973D01*
X005842Y009400D01*
X005611Y009400D01*
X005582Y009393D01*
X005621Y009476D02*
X006260Y009476D01*
X005938Y009318D02*
X005842Y009318D01*
X005842Y009159D02*
X005938Y009159D01*
X005938Y009001D02*
X005842Y009001D01*
X005842Y008842D02*
X005938Y008842D01*
X005938Y008684D02*
X005842Y008684D01*
X005842Y008525D02*
X005938Y008525D01*
X005938Y008208D02*
X005842Y008208D01*
X005842Y008050D02*
X005938Y008050D01*
X005938Y007891D02*
X005842Y007891D01*
X005842Y007733D02*
X005938Y007733D01*
X005938Y007574D02*
X005842Y007574D01*
X005842Y007416D02*
X005938Y007416D01*
X005478Y007416D02*
X003025Y007416D01*
X003025Y007574D02*
X005454Y007574D01*
X005454Y007733D02*
X003025Y007733D01*
X003025Y007891D02*
X005454Y007891D01*
X005454Y008050D02*
X003025Y008050D01*
X003025Y008208D02*
X005493Y008208D01*
X005653Y006782D02*
X007055Y006782D01*
X007076Y006940D02*
X003815Y006940D01*
X003585Y006940D02*
X003025Y006940D01*
X003025Y006782D02*
X003364Y006782D01*
X003305Y006623D02*
X003025Y006623D01*
X003025Y006465D02*
X003171Y006465D01*
X003073Y006306D02*
X003025Y006306D01*
X002425Y006306D02*
X002330Y006306D01*
X002330Y006148D02*
X002425Y006148D01*
X002425Y005989D02*
X002330Y005989D01*
X002330Y005831D02*
X002425Y005831D01*
X002425Y005672D02*
X002330Y005672D01*
X002330Y005514D02*
X002425Y005514D01*
X002425Y005355D02*
X002330Y005355D01*
X002330Y006465D02*
X002425Y006465D01*
X002425Y006623D02*
X002330Y006623D01*
X002330Y006782D02*
X002425Y006782D01*
X002425Y006940D02*
X002330Y006940D01*
X002330Y007099D02*
X002425Y007099D01*
X002425Y007257D02*
X002330Y007257D01*
X002330Y007416D02*
X002425Y007416D01*
X002425Y007574D02*
X002330Y007574D01*
X002330Y007733D02*
X002425Y007733D01*
X002425Y007891D02*
X002330Y007891D01*
X002330Y008050D02*
X002425Y008050D01*
X002425Y008208D02*
X002330Y008208D01*
X002334Y008367D02*
X002425Y008367D01*
X002425Y008525D02*
X002281Y008525D01*
X002393Y008684D02*
X002152Y008684D01*
X002014Y008842D02*
X002311Y008842D01*
X002305Y009001D02*
X001875Y009001D01*
X001736Y009159D02*
X002365Y009159D01*
X002591Y009318D02*
X001597Y009318D01*
X001459Y009476D02*
X004363Y009476D01*
X004085Y009318D02*
X004015Y009318D01*
X004015Y009159D02*
X004085Y009159D01*
X004085Y009001D02*
X004015Y009001D01*
X004015Y008842D02*
X004085Y008842D01*
X004085Y008684D02*
X004015Y008684D01*
X004015Y008525D02*
X004085Y008525D01*
X003661Y008525D02*
X003025Y008525D01*
X003025Y008367D02*
X007104Y008367D01*
X007120Y008525D02*
X007032Y008525D01*
X007056Y009215D02*
X007056Y009268D01*
X007019Y009356D01*
X006951Y009424D01*
X006863Y009460D01*
X006860Y009460D01*
X006860Y009515D01*
X006863Y009515D01*
X006951Y009551D01*
X007019Y009619D01*
X007056Y009707D01*
X007056Y010393D01*
X007019Y010481D01*
X006951Y010549D01*
X006863Y010585D01*
X006860Y010585D01*
X006860Y010640D01*
X006863Y010640D01*
X006951Y010676D01*
X007019Y010744D01*
X007055Y010744D01*
X007055Y010764D02*
X007055Y010606D01*
X007115Y010461D01*
X007226Y010350D01*
X007371Y010290D01*
X007529Y010290D01*
X007637Y010335D01*
X007746Y010290D01*
X007904Y010290D01*
X008013Y010335D01*
X008121Y010290D01*
X008279Y010290D01*
X008387Y010335D01*
X008496Y010290D01*
X008654Y010290D01*
X008672Y010298D01*
X008650Y010245D01*
X008650Y008315D01*
X008370Y008315D01*
X008370Y008358D01*
X008333Y008446D01*
X008314Y008465D01*
X008333Y008484D01*
X008370Y008572D01*
X008370Y009258D01*
X008333Y009346D01*
X008272Y009407D01*
X008274Y009409D01*
X008298Y009451D01*
X008310Y009496D01*
X008310Y009747D01*
X007803Y009747D01*
X007803Y009883D01*
X007667Y009883D01*
X007667Y010290D01*
X007316Y010290D01*
X007271Y010278D01*
X007229Y010254D01*
X007196Y010221D01*
X007172Y010179D01*
X007160Y010134D01*
X007160Y009883D01*
X007667Y009883D01*
X007667Y009747D01*
X007160Y009747D01*
X007160Y009496D01*
X007172Y009451D01*
X007196Y009409D01*
X007198Y009407D01*
X007137Y009346D01*
X007100Y009258D01*
X007100Y009215D01*
X007056Y009215D01*
X007035Y009318D02*
X007125Y009318D01*
X007165Y009476D02*
X006860Y009476D01*
X007026Y009635D02*
X007160Y009635D01*
X007056Y009793D02*
X007667Y009793D01*
X007803Y009793D02*
X008650Y009793D01*
X008650Y009635D02*
X008310Y009635D01*
X008305Y009476D02*
X008650Y009476D01*
X008650Y009318D02*
X008345Y009318D01*
X008370Y009159D02*
X008650Y009159D01*
X008650Y009001D02*
X008370Y009001D01*
X008370Y008842D02*
X008650Y008842D01*
X008650Y008684D02*
X008370Y008684D01*
X008350Y008525D02*
X008650Y008525D01*
X008650Y008367D02*
X008366Y008367D01*
X008323Y007574D02*
X008482Y007574D01*
X008026Y007416D02*
X007038Y007416D01*
X007138Y007574D02*
X007147Y007574D01*
X007180Y007099D02*
X003025Y007099D01*
X003025Y007257D02*
X007588Y007257D01*
X007100Y006623D02*
X005811Y006623D01*
X005970Y006465D02*
X007252Y006465D01*
X007425Y006306D02*
X006128Y006306D01*
X006287Y006148D02*
X007425Y006148D01*
X007425Y005989D02*
X006445Y005989D01*
X006604Y005831D02*
X007425Y005831D01*
X007425Y005672D02*
X006762Y005672D01*
X006921Y005514D02*
X007425Y005514D01*
X007425Y005355D02*
X007021Y005355D01*
X009449Y007860D02*
X009250Y008059D01*
X009250Y010061D01*
X009899Y010710D01*
X010690Y010710D01*
X010690Y010706D01*
X010726Y010618D01*
X010750Y010594D01*
X010750Y010388D01*
X011177Y010388D01*
X011177Y010292D01*
X011273Y010292D01*
X011273Y009904D01*
X011544Y009904D01*
X011590Y009917D01*
X011631Y009940D01*
X011664Y009974D01*
X011688Y010015D01*
X011700Y010061D01*
X011700Y010292D01*
X011273Y010292D01*
X011273Y010388D01*
X011700Y010388D01*
X011700Y010594D01*
X011724Y010618D01*
X011760Y010706D01*
X011760Y011165D01*
X011904Y011165D01*
X012049Y011225D01*
X012084Y011260D01*
X012760Y011260D01*
X012870Y011306D01*
X012954Y011390D01*
X013479Y011915D01*
X013525Y012025D01*
X013525Y012368D01*
X013547Y012389D01*
X013583Y012478D01*
X013583Y013317D01*
X013650Y013317D01*
X013650Y009444D01*
X013615Y009409D01*
X013555Y009264D01*
X013555Y009106D01*
X013615Y008961D01*
X013726Y008850D01*
X013871Y008790D01*
X014029Y008790D01*
X014174Y008850D01*
X014285Y008961D01*
X014345Y009106D01*
X014345Y009193D01*
X014424Y009225D01*
X014535Y009336D01*
X014595Y009481D01*
X014595Y009568D01*
X014674Y009600D01*
X014785Y009711D01*
X014845Y009856D01*
X014845Y009943D01*
X014924Y009975D01*
X015035Y010086D01*
X015095Y010231D01*
X015095Y010318D01*
X015174Y010350D01*
X015285Y010461D01*
X015345Y010606D01*
X015345Y010693D01*
X015424Y010725D01*
X015535Y010836D01*
X015595Y010981D01*
X015595Y011139D01*
X015535Y011284D01*
X015500Y011319D01*
X015500Y012311D01*
X015745Y012556D01*
X015829Y012640D01*
X015870Y012738D01*
X015870Y010480D01*
X014249Y008628D01*
X014193Y008572D01*
X014187Y008557D01*
X014176Y008544D01*
X014150Y008469D01*
X014120Y008395D01*
X014120Y008379D01*
X014115Y008363D01*
X014120Y008284D01*
X014120Y005228D01*
X014094Y005243D01*
X014049Y005255D01*
X013795Y005255D01*
X013795Y004675D01*
X013655Y004675D01*
X013655Y005255D01*
X013401Y005255D01*
X013356Y005243D01*
X013314Y005219D01*
X013281Y005186D01*
X013257Y005144D01*
X013257Y005143D01*
X013228Y005211D01*
X013161Y005278D01*
X013073Y005315D01*
X013025Y005315D01*
X013025Y007220D01*
X012979Y007330D01*
X012579Y007730D01*
X012495Y007814D01*
X012385Y007860D01*
X009449Y007860D01*
X009418Y007891D02*
X014120Y007891D01*
X014120Y007733D02*
X012577Y007733D01*
X012735Y007574D02*
X014120Y007574D01*
X014120Y007416D02*
X012894Y007416D01*
X013010Y007257D02*
X014120Y007257D01*
X014120Y007099D02*
X013025Y007099D01*
X013025Y006940D02*
X014120Y006940D01*
X014120Y006782D02*
X013025Y006782D01*
X013025Y006623D02*
X014120Y006623D01*
X014120Y006465D02*
X013025Y006465D01*
X013025Y006306D02*
X014120Y006306D01*
X014120Y006148D02*
X013025Y006148D01*
X013025Y005989D02*
X014120Y005989D01*
X014120Y005831D02*
X013025Y005831D01*
X013025Y005672D02*
X014120Y005672D01*
X014120Y005514D02*
X013025Y005514D01*
X013025Y005355D02*
X014120Y005355D01*
X013795Y005197D02*
X013655Y005197D01*
X013655Y005038D02*
X013795Y005038D01*
X013795Y004880D02*
X013655Y004880D01*
X013655Y004721D02*
X013795Y004721D01*
X013292Y005197D02*
X013234Y005197D01*
X014120Y008050D02*
X010818Y008050D01*
X010813Y008039D02*
X010850Y008127D01*
X010850Y009723D01*
X010813Y009811D01*
X010746Y009878D01*
X010658Y009915D01*
X009772Y009915D01*
X009684Y009878D01*
X009617Y009811D01*
X009580Y009723D01*
X009580Y008127D01*
X009617Y008039D01*
X009684Y007972D01*
X009772Y007935D01*
X010658Y007935D01*
X010746Y007972D01*
X010813Y008039D01*
X010850Y008208D02*
X014120Y008208D01*
X014116Y008367D02*
X010850Y008367D01*
X010850Y008525D02*
X014169Y008525D01*
X014298Y008684D02*
X010850Y008684D01*
X010850Y008842D02*
X013746Y008842D01*
X013599Y009001D02*
X010850Y009001D01*
X010850Y009159D02*
X013555Y009159D01*
X013577Y009318D02*
X010850Y009318D01*
X010850Y009476D02*
X013650Y009476D01*
X013650Y009635D02*
X010850Y009635D01*
X010821Y009793D02*
X013650Y009793D01*
X013650Y009952D02*
X011642Y009952D01*
X011700Y010110D02*
X013650Y010110D01*
X013650Y010269D02*
X011700Y010269D01*
X011700Y010427D02*
X013650Y010427D01*
X013650Y010586D02*
X011700Y010586D01*
X011760Y010744D02*
X013650Y010744D01*
X013650Y010903D02*
X011760Y010903D01*
X011760Y011061D02*
X013650Y011061D01*
X013650Y011220D02*
X012035Y011220D01*
X012942Y011378D02*
X013650Y011378D01*
X013650Y011537D02*
X013101Y011537D01*
X013259Y011695D02*
X013650Y011695D01*
X013650Y011854D02*
X013418Y011854D01*
X013519Y012012D02*
X013650Y012012D01*
X013650Y012171D02*
X013525Y012171D01*
X013525Y012329D02*
X013650Y012329D01*
X013650Y012488D02*
X013583Y012488D01*
X013583Y012646D02*
X013650Y012646D01*
X013650Y012805D02*
X013583Y012805D01*
X013583Y012963D02*
X013650Y012963D01*
X013650Y013122D02*
X013583Y013122D01*
X013583Y013280D02*
X013650Y013280D01*
X012704Y013632D02*
X012559Y013632D01*
X012475Y013597D01*
X012391Y013632D01*
X012059Y013632D01*
X012025Y013617D01*
X012025Y013826D01*
X012035Y013836D01*
X012095Y013981D01*
X012095Y014139D01*
X012035Y014284D01*
X011924Y014395D01*
X011779Y014455D01*
X011621Y014455D01*
X011476Y014395D01*
X011365Y014284D01*
X011305Y014139D01*
X011305Y013981D01*
X011365Y013836D01*
X011425Y013776D01*
X011425Y013617D01*
X011391Y013632D01*
X011059Y013632D01*
X010975Y013597D01*
X010891Y013632D01*
X010559Y013632D01*
X010475Y013597D01*
X010391Y013632D01*
X010154Y013632D01*
X010154Y013841D01*
X010119Y013925D01*
X010154Y014009D01*
X010154Y014290D01*
X010279Y014290D01*
X010424Y014350D01*
X010535Y014461D01*
X010595Y014606D01*
X010595Y014764D01*
X010535Y014909D01*
X010509Y014935D01*
X010535Y014961D01*
X010595Y015106D01*
X010595Y015264D01*
X010535Y015409D01*
X010509Y015435D01*
X010535Y015461D01*
X010595Y015606D01*
X010595Y015764D01*
X010535Y015909D01*
X010424Y016020D01*
X010279Y016080D01*
X010154Y016080D01*
X010154Y016290D01*
X010279Y016290D01*
X010424Y016350D01*
X010535Y016461D01*
X010595Y016606D01*
X010595Y016764D01*
X010535Y016909D01*
X010424Y017020D01*
X010279Y017080D01*
X010154Y017080D01*
X010154Y017341D01*
X010119Y017425D01*
X010154Y017509D01*
X010154Y017718D01*
X013296Y017718D01*
X013296Y017521D01*
X013154Y017580D01*
X012996Y017580D01*
X012851Y017520D01*
X012740Y017409D01*
X012680Y017264D01*
X012680Y017106D01*
X012740Y016961D01*
X012766Y016935D01*
X012740Y016909D01*
X012680Y016764D01*
X012680Y016606D01*
X012740Y016461D01*
X012766Y016435D01*
X012740Y016409D01*
X012680Y016264D01*
X012680Y016106D01*
X012740Y015961D01*
X012766Y015935D01*
X012740Y015909D01*
X012680Y015764D01*
X012680Y015606D01*
X012740Y015461D01*
X012766Y015435D01*
X012740Y015409D01*
X012680Y015264D01*
X012680Y015106D01*
X012740Y014961D01*
X012766Y014935D01*
X012740Y014909D01*
X012680Y014764D01*
X012680Y014606D01*
X012699Y014561D01*
X012654Y014580D01*
X012496Y014580D01*
X012351Y014520D01*
X012240Y014409D01*
X012180Y014264D01*
X012180Y014106D01*
X012240Y013961D01*
X012351Y013850D01*
X012496Y013790D01*
X012546Y013790D01*
X012704Y013632D01*
X012580Y013756D02*
X012025Y013756D01*
X012067Y013914D02*
X012287Y013914D01*
X012194Y014073D02*
X012095Y014073D01*
X012057Y014231D02*
X012180Y014231D01*
X012232Y014390D02*
X011929Y014390D01*
X011471Y014390D02*
X010463Y014390D01*
X010571Y014548D02*
X012419Y014548D01*
X012680Y014707D02*
X010595Y014707D01*
X010553Y014865D02*
X012722Y014865D01*
X012714Y015024D02*
X010561Y015024D01*
X010595Y015182D02*
X012680Y015182D01*
X012712Y015341D02*
X010563Y015341D01*
X010551Y015499D02*
X012724Y015499D01*
X012680Y015658D02*
X010595Y015658D01*
X010573Y015816D02*
X012702Y015816D01*
X012735Y015975D02*
X010469Y015975D01*
X010282Y016292D02*
X012692Y016292D01*
X012680Y016133D02*
X010154Y016133D01*
X010524Y016450D02*
X012751Y016450D01*
X012680Y016609D02*
X010595Y016609D01*
X010594Y016767D02*
X012681Y016767D01*
X012757Y016926D02*
X010518Y016926D01*
X010154Y017084D02*
X012689Y017084D01*
X012680Y017243D02*
X010154Y017243D01*
X010129Y017401D02*
X012737Y017401D01*
X012947Y017560D02*
X010154Y017560D01*
X010154Y017718D02*
X010391Y017718D01*
X010475Y017753D01*
X010559Y017718D01*
X010891Y017718D01*
X010975Y017753D01*
X011059Y017718D01*
X011391Y017718D01*
X011475Y017753D01*
X011559Y017718D01*
X011891Y017718D01*
X011979Y017755D01*
X012023Y017799D01*
X012037Y017791D01*
X012083Y017778D01*
X012225Y017778D01*
X012225Y018392D01*
X012225Y019005D01*
X012083Y019005D01*
X012037Y018992D01*
X012023Y018984D01*
X012000Y019007D01*
X012000Y019676D01*
X012035Y019711D01*
X012095Y019856D01*
X012095Y020014D01*
X012035Y020159D01*
X011924Y020270D01*
X011779Y020330D01*
X011621Y020330D01*
X011476Y020270D01*
X011450Y020244D01*
X011424Y020270D01*
X011279Y020330D01*
X011121Y020330D01*
X010976Y020270D01*
X010865Y020159D01*
X010825Y020061D01*
X010779Y020080D01*
X010621Y020080D01*
X010476Y020020D01*
X010365Y019909D01*
X010325Y019811D01*
X010279Y019830D01*
X010121Y019830D01*
X009976Y019770D01*
X009865Y019659D01*
X009805Y019514D01*
X009805Y019360D01*
X009785Y019409D01*
X009674Y019520D01*
X009529Y019580D01*
X009371Y019580D01*
X009226Y019520D01*
X009115Y019409D01*
X009055Y019264D01*
X009055Y019106D01*
X009115Y018961D01*
X009181Y018895D01*
X009181Y018033D01*
X009000Y018033D01*
X008912Y017997D01*
X008844Y017929D01*
X008808Y017841D01*
X008808Y017509D01*
X008822Y017475D01*
X007377Y017475D01*
X007266Y017429D01*
X007182Y017345D01*
X007156Y017319D01*
X007145Y017330D01*
X007105Y017370D01*
X007105Y017403D01*
X007068Y017491D01*
X006862Y017698D01*
X006850Y017703D01*
X006846Y017714D01*
X006639Y017921D01*
X006628Y017925D01*
X006623Y017937D01*
X006416Y018143D01*
X006405Y018148D01*
X006400Y018159D01*
X006250Y018310D01*
X006250Y019120D01*
X006204Y019230D01*
X006049Y019385D01*
X006449Y019385D01*
X006765Y019701D01*
X006765Y020149D01*
X006449Y020465D01*
X006094Y020465D01*
X005989Y020570D01*
X015870Y020570D01*
X015870Y018312D01*
X015723Y018312D01*
X015645Y018280D01*
X015630Y018280D01*
X015453Y018207D01*
X015318Y018072D01*
X015245Y017895D01*
X015245Y017880D01*
X015213Y017802D01*
X015213Y017548D01*
X015245Y017470D01*
X015245Y016380D01*
X015213Y016302D01*
X015213Y016048D01*
X015245Y015970D01*
X015245Y015955D01*
X015318Y015778D01*
X015453Y015643D01*
X015630Y015570D01*
X015645Y015570D01*
X015723Y015538D01*
X015870Y015538D01*
X015870Y015132D01*
X015829Y015230D01*
X014769Y016290D01*
X014904Y016290D01*
X015049Y016350D01*
X015160Y016461D01*
X015164Y016471D01*
X015179Y016484D01*
X015185Y016496D01*
X015194Y016505D01*
X015212Y016548D01*
X015234Y016590D01*
X015235Y016603D01*
X015240Y016615D01*
X015240Y016662D01*
X015244Y016708D01*
X015240Y016721D01*
X015240Y016735D01*
X015222Y016778D01*
X015208Y016822D01*
X015199Y016833D01*
X015194Y016845D01*
X015181Y016859D01*
X015160Y016909D01*
X015134Y016935D01*
X015160Y016961D01*
X015220Y017106D01*
X015220Y017264D01*
X015160Y017409D01*
X015049Y017520D01*
X014952Y017560D01*
X015049Y017600D01*
X015160Y017711D01*
X015220Y017856D01*
X015220Y018014D01*
X015160Y018159D01*
X015071Y018247D01*
X015160Y018336D01*
X015220Y018481D01*
X015220Y018639D01*
X015160Y018784D01*
X015049Y018895D01*
X014904Y018955D01*
X014746Y018955D01*
X014601Y018895D01*
X014490Y018784D01*
X014452Y018692D01*
X013583Y018692D01*
X013583Y018872D01*
X013547Y018961D01*
X013479Y019028D01*
X013391Y019065D01*
X013059Y019065D01*
X013025Y019050D01*
X013025Y019086D01*
X013074Y019135D01*
X013566Y019135D01*
X013601Y019100D01*
X013746Y019040D01*
X013904Y019040D01*
X014049Y019100D01*
X014160Y019211D01*
X014220Y019356D01*
X014220Y019514D01*
X014160Y019659D01*
X014049Y019770D01*
X013904Y019830D01*
X013746Y019830D01*
X013601Y019770D01*
X013566Y019735D01*
X012890Y019735D01*
X012780Y019689D01*
X012555Y019464D01*
X012471Y019380D01*
X012425Y019270D01*
X012425Y018985D01*
X012413Y018992D01*
X012367Y019005D01*
X012225Y019005D01*
X012225Y018392D01*
X012225Y018392D01*
X012225Y017778D01*
X012367Y017778D01*
X012413Y017791D01*
X012427Y017799D01*
X012471Y017755D01*
X012559Y017718D01*
X012891Y017718D01*
X012975Y017753D01*
X013059Y017718D01*
X013296Y017718D01*
X013296Y017560D02*
X013203Y017560D01*
X012225Y017877D02*
X012225Y017877D01*
X012225Y018035D02*
X012225Y018035D01*
X012225Y018194D02*
X012225Y018194D01*
X012225Y018352D02*
X012225Y018352D01*
X012225Y018392D02*
X012225Y018392D01*
X012225Y018511D02*
X012225Y018511D01*
X012225Y018669D02*
X012225Y018669D01*
X012225Y018828D02*
X012225Y018828D01*
X012225Y018986D02*
X012225Y018986D01*
X012026Y018986D02*
X012021Y018986D01*
X012000Y019145D02*
X012425Y019145D01*
X012439Y019303D02*
X012000Y019303D01*
X012000Y019462D02*
X012552Y019462D01*
X012711Y019620D02*
X012000Y019620D01*
X012063Y019779D02*
X013622Y019779D01*
X014028Y019779D02*
X015870Y019779D01*
X015870Y019937D02*
X012095Y019937D01*
X012061Y020096D02*
X015870Y020096D01*
X015870Y020254D02*
X011940Y020254D01*
X011460Y020254D02*
X011440Y020254D01*
X010960Y020254D02*
X006660Y020254D01*
X006765Y020096D02*
X010839Y020096D01*
X010393Y019937D02*
X006765Y019937D01*
X006765Y019779D02*
X009997Y019779D01*
X009849Y019620D02*
X006684Y019620D01*
X006525Y019462D02*
X009168Y019462D01*
X009071Y019303D02*
X006131Y019303D01*
X006240Y019145D02*
X009055Y019145D01*
X009105Y018986D02*
X006250Y018986D01*
X006250Y018828D02*
X009181Y018828D01*
X009181Y018669D02*
X006250Y018669D01*
X006250Y018511D02*
X009181Y018511D01*
X009181Y018352D02*
X006250Y018352D01*
X006366Y018194D02*
X009181Y018194D01*
X009181Y018035D02*
X006525Y018035D01*
X006683Y017877D02*
X008823Y017877D01*
X008808Y017718D02*
X006842Y017718D01*
X007000Y017560D02*
X008808Y017560D01*
X007238Y017401D02*
X007105Y017401D01*
X007145Y017330D02*
X007092Y017276D01*
X007092Y017276D01*
X007145Y017330D01*
X007092Y017276D02*
X007092Y017276D01*
X006443Y016627D02*
X006443Y016627D01*
X006390Y016574D01*
X006430Y016533D01*
X006430Y016500D01*
X006467Y016412D01*
X006673Y016205D01*
X006685Y016201D01*
X006689Y016189D01*
X006894Y015985D01*
X006390Y015985D01*
X006280Y015939D01*
X006196Y015855D01*
X004380Y014040D01*
X004335Y013929D01*
X004335Y013544D01*
X004189Y013689D01*
X004178Y013694D01*
X004173Y013705D01*
X003966Y013912D01*
X003955Y013917D01*
X003950Y013928D01*
X003744Y014135D01*
X003732Y014139D01*
X003728Y014151D01*
X003521Y014357D01*
X003510Y014362D01*
X003505Y014373D01*
X003298Y014580D01*
X003287Y014585D01*
X003282Y014596D01*
X003168Y014710D01*
X003204Y014746D01*
X003250Y014856D01*
X003250Y014926D01*
X003285Y014961D01*
X003345Y015106D01*
X003345Y015260D01*
X004135Y015260D01*
X004245Y015306D01*
X004954Y016015D01*
X005000Y016125D01*
X005000Y016540D01*
X005029Y016540D01*
X005034Y016542D01*
X005101Y016475D01*
X005199Y016434D01*
X005240Y016336D01*
X005351Y016225D01*
X005496Y016165D01*
X005583Y016165D01*
X005615Y016086D01*
X005726Y015975D01*
X005871Y015915D01*
X006029Y015915D01*
X006174Y015975D01*
X006285Y016086D01*
X006345Y016231D01*
X006345Y016389D01*
X006298Y016503D01*
X006379Y016584D01*
X006390Y016574D01*
X006443Y016627D01*
X006443Y016627D01*
X006424Y016609D02*
X006424Y016609D01*
X006451Y016450D02*
X006320Y016450D01*
X006345Y016292D02*
X006587Y016292D01*
X006746Y016133D02*
X006304Y016133D01*
X006365Y015975D02*
X006172Y015975D01*
X006157Y015816D02*
X004755Y015816D01*
X004597Y015658D02*
X005998Y015658D01*
X005840Y015499D02*
X004438Y015499D01*
X004280Y015341D02*
X005681Y015341D01*
X005523Y015182D02*
X003345Y015182D01*
X003311Y015024D02*
X005364Y015024D01*
X005206Y014865D02*
X003250Y014865D01*
X003172Y014707D02*
X005047Y014707D01*
X004889Y014548D02*
X003330Y014548D01*
X003489Y014390D02*
X004730Y014390D01*
X004572Y014231D02*
X003647Y014231D01*
X003806Y014073D02*
X004413Y014073D01*
X004335Y013914D02*
X003961Y013914D01*
X004123Y013756D02*
X004335Y013756D01*
X004335Y013597D02*
X004281Y013597D01*
X003665Y012488D02*
X003618Y012488D01*
X003595Y012329D02*
X003665Y012329D01*
X003665Y012171D02*
X003570Y012171D01*
X003665Y012012D02*
X003461Y012012D01*
X003344Y011854D02*
X003665Y011854D01*
X003577Y011695D02*
X003269Y011695D01*
X003095Y011537D02*
X003469Y011537D01*
X003469Y011378D02*
X003052Y011378D01*
X002910Y011220D02*
X003469Y011220D01*
X003469Y011061D02*
X002826Y011061D01*
X002726Y010903D02*
X003469Y010903D01*
X003526Y010744D02*
X000580Y010744D01*
X000580Y010586D02*
X004283Y010586D01*
X004013Y010427D02*
X003917Y010427D01*
X003917Y010269D02*
X004013Y010269D01*
X003917Y010110D02*
X000904Y010110D01*
X000765Y010269D02*
X003529Y010269D01*
X003540Y010427D02*
X000627Y010427D01*
X000580Y010903D02*
X002174Y010903D01*
X002074Y011061D02*
X000580Y011061D01*
X000580Y011220D02*
X002055Y011220D01*
X002102Y011378D02*
X000580Y011378D01*
X000580Y011537D02*
X002150Y011537D01*
X002150Y011695D02*
X000580Y011695D01*
X000580Y011854D02*
X002150Y011854D01*
X002150Y012012D02*
X000580Y012012D01*
X000580Y012171D02*
X002150Y012171D01*
X002150Y012329D02*
X000580Y012329D01*
X000580Y012488D02*
X002150Y012488D01*
X002150Y012646D02*
X002128Y012646D01*
X001491Y012646D02*
X000580Y012646D01*
X000580Y012805D02*
X000720Y012805D01*
X000704Y012963D02*
X000580Y012963D01*
X000580Y013122D02*
X000704Y013122D01*
X000704Y013280D02*
X000580Y013280D01*
X000580Y013439D02*
X000704Y013439D01*
X000757Y013597D02*
X000580Y013597D01*
X000580Y013756D02*
X001510Y013756D01*
X001542Y013914D02*
X000580Y013914D01*
X000580Y014073D02*
X001682Y014073D01*
X001841Y014231D02*
X000580Y014231D01*
X000580Y014390D02*
X001856Y014390D01*
X001978Y014390D02*
X001978Y014390D01*
X001989Y014400D02*
X001989Y014400D01*
X001989Y014400D01*
X001649Y014548D02*
X000580Y014548D01*
X000580Y014707D02*
X001491Y014707D01*
X001339Y014865D02*
X000580Y014865D01*
X000580Y015024D02*
X001308Y015024D01*
X001401Y015182D02*
X000580Y015182D01*
X000580Y015341D02*
X001560Y015341D01*
X001718Y015499D02*
X000580Y015499D01*
X001011Y015658D02*
X001877Y015658D01*
X001857Y015816D02*
X001148Y015816D01*
X001207Y015975D02*
X001698Y015975D01*
X001540Y016133D02*
X001237Y016133D01*
X001237Y016292D02*
X001381Y016292D01*
X001308Y016450D02*
X001205Y016450D01*
X001205Y016609D02*
X001352Y016609D01*
X001205Y016767D02*
X001511Y016767D01*
X001669Y016926D02*
X001205Y016926D01*
X001205Y017084D02*
X001828Y017084D01*
X001986Y017243D02*
X001205Y017243D01*
X001205Y017401D02*
X002145Y017401D01*
X002303Y017560D02*
X001237Y017560D01*
X001237Y017718D02*
X002490Y017718D01*
X002656Y017877D02*
X001207Y017877D01*
X001147Y018035D02*
X002779Y018035D01*
X002652Y018194D02*
X001010Y018194D01*
X001034Y018352D02*
X000580Y018352D01*
X000580Y018511D02*
X000904Y018511D01*
X000904Y018669D02*
X000580Y018669D01*
X000580Y018828D02*
X001292Y018828D01*
X001292Y018986D02*
X001388Y018986D01*
X001388Y019145D02*
X001292Y019145D01*
X001423Y019303D02*
X000580Y019303D01*
X000580Y019145D02*
X000906Y019145D01*
X000904Y018986D02*
X000580Y018986D01*
X000580Y019462D02*
X000925Y019462D01*
X000766Y019620D02*
X000580Y019620D01*
X000580Y019779D02*
X000685Y019779D01*
X000685Y019937D02*
X000580Y019937D01*
X000580Y020096D02*
X000685Y020096D01*
X000580Y020254D02*
X000790Y020254D01*
X000949Y020413D02*
X000580Y020413D01*
X001501Y020413D02*
X002503Y020413D01*
X002245Y020254D02*
X002205Y020254D01*
X002205Y020096D02*
X002245Y020096D01*
X002245Y019905D02*
X002245Y019445D01*
X002424Y019445D01*
X002470Y019491D01*
X002530Y019431D01*
X003030Y018931D01*
X003140Y018885D01*
X003629Y018885D01*
X003571Y018828D01*
X003567Y018816D01*
X003555Y018812D01*
X003349Y018605D01*
X003344Y018594D01*
X003333Y018589D01*
X003219Y018475D01*
X002704Y018990D01*
X002619Y019074D01*
X002509Y019120D01*
X002506Y019120D01*
X002506Y019163D01*
X002469Y019251D01*
X002401Y019319D01*
X002313Y019355D01*
X002219Y019355D01*
X002180Y019395D01*
X002129Y019445D01*
X002205Y019445D01*
X002205Y019905D01*
X002245Y019905D01*
X002245Y019779D02*
X002205Y019779D01*
X002205Y019620D02*
X002245Y019620D01*
X002245Y019462D02*
X002205Y019462D01*
X002440Y019462D02*
X002499Y019462D01*
X002417Y019303D02*
X002658Y019303D01*
X002506Y019145D02*
X002816Y019145D01*
X002704Y018990D02*
X002704Y018990D01*
X002708Y018986D02*
X002975Y018986D01*
X002866Y018828D02*
X003571Y018828D01*
X003413Y018669D02*
X003025Y018669D01*
X003183Y018511D02*
X003254Y018511D01*
X002493Y018352D02*
X002432Y018352D01*
X001388Y018352D02*
X001292Y018352D01*
X001292Y018511D02*
X001388Y018511D01*
X001388Y018669D02*
X001292Y018669D01*
X001660Y020254D02*
X001875Y020254D01*
X005000Y016450D02*
X005162Y016450D01*
X005285Y016292D02*
X005000Y016292D01*
X005000Y016133D02*
X005596Y016133D01*
X005728Y015975D02*
X004914Y015975D01*
X005639Y012533D02*
X005625Y012519D01*
X005625Y011650D01*
X005842Y011650D01*
X005842Y011223D01*
X005938Y011223D01*
X005938Y011650D01*
X006144Y011650D01*
X006168Y011674D01*
X006256Y011710D01*
X006260Y011710D01*
X006260Y011913D01*
X005639Y012533D01*
X005625Y012488D02*
X005685Y012488D01*
X005625Y012329D02*
X005844Y012329D01*
X006002Y012171D02*
X005625Y012171D01*
X005625Y012012D02*
X006161Y012012D01*
X006260Y011854D02*
X005625Y011854D01*
X005625Y011695D02*
X006219Y011695D01*
X005938Y011537D02*
X005842Y011537D01*
X005842Y011378D02*
X005938Y011378D01*
X005938Y011127D02*
X005842Y011127D01*
X005842Y010700D01*
X005625Y010700D01*
X005625Y010585D01*
X006194Y010585D01*
X006225Y010572D01*
X006256Y010585D01*
X006260Y010585D01*
X006260Y010640D01*
X006256Y010640D01*
X006168Y010676D01*
X006144Y010700D01*
X005938Y010700D01*
X005938Y011127D01*
X005938Y011061D02*
X005842Y011061D01*
X005842Y010903D02*
X005938Y010903D01*
X005938Y010744D02*
X005842Y010744D01*
X005625Y010586D02*
X006260Y010586D01*
X006860Y010586D02*
X007064Y010586D01*
X007041Y010427D02*
X007149Y010427D01*
X007056Y010269D02*
X007255Y010269D01*
X007160Y010110D02*
X007056Y010110D01*
X007056Y009952D02*
X007160Y009952D01*
X007667Y009952D02*
X007803Y009952D01*
X007803Y009883D02*
X007803Y010290D01*
X008154Y010290D01*
X008199Y010278D01*
X008241Y010254D01*
X008274Y010221D01*
X008298Y010179D01*
X008310Y010134D01*
X008310Y009883D01*
X007803Y009883D01*
X007803Y010110D02*
X007667Y010110D01*
X007667Y010269D02*
X007803Y010269D01*
X008215Y010269D02*
X008660Y010269D01*
X008650Y010110D02*
X008310Y010110D01*
X008310Y009952D02*
X008650Y009952D01*
X009250Y009952D02*
X010808Y009952D01*
X010819Y009940D02*
X010860Y009917D01*
X010906Y009904D01*
X011177Y009904D01*
X011177Y010292D01*
X010750Y010292D01*
X010750Y010061D01*
X010762Y010015D01*
X010786Y009974D01*
X010819Y009940D01*
X010750Y010110D02*
X009299Y010110D01*
X009458Y010269D02*
X010750Y010269D01*
X010750Y010427D02*
X009616Y010427D01*
X009775Y010586D02*
X010750Y010586D01*
X011177Y010269D02*
X011273Y010269D01*
X011273Y010110D02*
X011177Y010110D01*
X011177Y009952D02*
X011273Y009952D01*
X009609Y009793D02*
X009250Y009793D01*
X009250Y009635D02*
X009580Y009635D01*
X009580Y009476D02*
X009250Y009476D01*
X009250Y009318D02*
X009580Y009318D01*
X009580Y009159D02*
X009250Y009159D01*
X009250Y009001D02*
X009580Y009001D01*
X009580Y008842D02*
X009250Y008842D01*
X009250Y008684D02*
X009580Y008684D01*
X009580Y008525D02*
X009250Y008525D01*
X009250Y008367D02*
X009580Y008367D01*
X009580Y008208D02*
X009250Y008208D01*
X009260Y008050D02*
X009612Y008050D01*
X007055Y010764D02*
X007115Y010909D01*
X007150Y010944D01*
X007150Y012426D01*
X007115Y012461D01*
X007055Y012606D01*
X007055Y012635D01*
X006386Y012635D01*
X006730Y012292D01*
X006814Y012207D01*
X006860Y012097D01*
X006860Y011710D01*
X006863Y011710D01*
X006951Y011674D01*
X007019Y011606D01*
X007056Y011518D01*
X007056Y010832D01*
X007019Y010744D01*
X007056Y010903D02*
X007113Y010903D01*
X007150Y011061D02*
X007056Y011061D01*
X007056Y011220D02*
X007150Y011220D01*
X007150Y011378D02*
X007056Y011378D01*
X007048Y011537D02*
X007150Y011537D01*
X007150Y011695D02*
X006900Y011695D01*
X006860Y011854D02*
X007150Y011854D01*
X007150Y012012D02*
X006860Y012012D01*
X006829Y012171D02*
X007150Y012171D01*
X007150Y012329D02*
X006692Y012329D01*
X006534Y012488D02*
X007104Y012488D01*
X010154Y013756D02*
X011425Y013756D01*
X011333Y013914D02*
X010124Y013914D01*
X010154Y014073D02*
X011305Y014073D01*
X011343Y014231D02*
X010154Y014231D01*
X010474Y013597D02*
X010476Y013597D01*
X010974Y013597D02*
X010976Y013597D01*
X012474Y013597D02*
X012476Y013597D01*
X014926Y016133D02*
X015213Y016133D01*
X015213Y016292D02*
X014907Y016292D01*
X015085Y015975D02*
X015243Y015975D01*
X015243Y015816D02*
X015302Y015816D01*
X015402Y015658D02*
X015439Y015658D01*
X015560Y015499D02*
X015870Y015499D01*
X015870Y015341D02*
X015719Y015341D01*
X015849Y015182D02*
X015870Y015182D01*
X015245Y016450D02*
X015149Y016450D01*
X015237Y016609D02*
X015245Y016609D01*
X015245Y016767D02*
X015227Y016767D01*
X015245Y016926D02*
X015143Y016926D01*
X015211Y017084D02*
X015245Y017084D01*
X015245Y017243D02*
X015220Y017243D01*
X015245Y017401D02*
X015163Y017401D01*
X015213Y017560D02*
X014953Y017560D01*
X015163Y017718D02*
X015213Y017718D01*
X015220Y017877D02*
X015243Y017877D01*
X015211Y018035D02*
X015303Y018035D01*
X015440Y018194D02*
X015125Y018194D01*
X015166Y018352D02*
X015870Y018352D01*
X015870Y018511D02*
X015220Y018511D01*
X015207Y018669D02*
X015870Y018669D01*
X015870Y018828D02*
X015116Y018828D01*
X014534Y018828D02*
X013583Y018828D01*
X013521Y018986D02*
X015870Y018986D01*
X015870Y019145D02*
X014093Y019145D01*
X014198Y019303D02*
X015870Y019303D01*
X015870Y019462D02*
X014220Y019462D01*
X014176Y019620D02*
X015870Y019620D01*
X015870Y020413D02*
X006501Y020413D01*
X009732Y019462D02*
X009805Y019462D01*
X012424Y018986D02*
X012425Y018986D01*
X015832Y012646D02*
X015870Y012646D01*
X015870Y012488D02*
X015677Y012488D01*
X015518Y012329D02*
X015870Y012329D01*
X015870Y012171D02*
X015500Y012171D01*
X015500Y012012D02*
X015870Y012012D01*
X015870Y011854D02*
X015500Y011854D01*
X015500Y011695D02*
X015870Y011695D01*
X015870Y011537D02*
X015500Y011537D01*
X015500Y011378D02*
X015870Y011378D01*
X015870Y011220D02*
X015561Y011220D01*
X015595Y011061D02*
X015870Y011061D01*
X015870Y010903D02*
X015562Y010903D01*
X015443Y010744D02*
X015870Y010744D01*
X015870Y010586D02*
X015336Y010586D01*
X015251Y010427D02*
X015823Y010427D01*
X015685Y010269D02*
X015095Y010269D01*
X015045Y010110D02*
X015546Y010110D01*
X015407Y009952D02*
X014867Y009952D01*
X014819Y009793D02*
X015269Y009793D01*
X015130Y009635D02*
X014708Y009635D01*
X014593Y009476D02*
X014991Y009476D01*
X014853Y009318D02*
X014516Y009318D01*
X014345Y009159D02*
X014714Y009159D01*
X014575Y009001D02*
X014301Y009001D01*
X014436Y008842D02*
X014154Y008842D01*
X004013Y009635D02*
X003917Y009635D01*
X003917Y009793D02*
X004013Y009793D01*
X004013Y009952D02*
X003917Y009952D01*
X003529Y009952D02*
X001043Y009952D01*
X001181Y009793D02*
X003529Y009793D01*
X003595Y009635D02*
X001320Y009635D01*
X002809Y009318D02*
X003657Y009318D01*
X003640Y009159D02*
X003035Y009159D01*
X003095Y009001D02*
X003640Y009001D01*
X003640Y008842D02*
X003089Y008842D01*
X003025Y008684D02*
X003640Y008684D01*
X001188Y012805D02*
X001092Y012805D01*
X001092Y012963D02*
X001188Y012963D01*
X001188Y013122D02*
X001092Y013122D01*
X001092Y013280D02*
X001188Y013280D01*
X001188Y013439D02*
X001092Y013439D01*
X001092Y013597D02*
X001188Y013597D01*
D22*
X002950Y015185D03*
X002950Y015935D03*
X003450Y016810D03*
X003950Y016435D03*
X004200Y016060D03*
X004450Y016435D03*
X004950Y016935D03*
X005325Y016810D03*
X005575Y016560D03*
X005950Y016310D03*
X004950Y015310D03*
X004950Y013685D03*
X003200Y012310D03*
X002950Y011935D03*
X002700Y011560D03*
X002450Y011185D03*
X002700Y008935D03*
X003700Y006560D03*
X003450Y006185D03*
X003200Y005810D03*
X003200Y005435D03*
X007075Y009435D03*
X007450Y010685D03*
X007825Y010685D03*
X008200Y010685D03*
X008575Y010685D03*
X008950Y010685D03*
X010200Y010185D03*
X011575Y011935D03*
X011825Y011560D03*
X012200Y012310D03*
X011700Y014060D03*
X012575Y014185D03*
X013075Y014185D03*
X013075Y014685D03*
X013075Y015185D03*
X013075Y015685D03*
X013075Y016185D03*
X013075Y016685D03*
X013075Y017185D03*
X013825Y019435D03*
X014825Y018560D03*
X014825Y017935D03*
X014825Y017185D03*
X014825Y016685D03*
X015575Y020310D03*
X011700Y019935D03*
X011200Y019935D03*
X010700Y019685D03*
X010200Y019435D03*
X009450Y019185D03*
X010200Y016685D03*
X010200Y015685D03*
X010200Y015185D03*
X010200Y014685D03*
X010825Y014060D03*
X008950Y012685D03*
X008575Y012685D03*
X008200Y012685D03*
X007825Y012685D03*
X007450Y012685D03*
X006825Y012435D03*
X005950Y010685D03*
X008575Y007185D03*
X008950Y007310D03*
X008200Y007060D03*
X007825Y006935D03*
X007450Y006810D03*
X013950Y009185D03*
X014200Y009560D03*
X014450Y009935D03*
X014700Y010310D03*
X014950Y010685D03*
X015200Y011060D03*
X007950Y015435D03*
D23*
X007950Y015769D01*
X007436Y016284D01*
X007213Y016506D02*
X007642Y016935D01*
X008825Y016935D01*
X009085Y016675D01*
X009481Y016675D01*
X009491Y016685D01*
X010200Y016685D01*
X010200Y015685D02*
X009491Y015685D01*
X009481Y015675D01*
X009190Y015675D01*
X007950Y014435D01*
X007280Y014435D01*
X006990Y014725D01*
X007213Y014947D02*
X007475Y014685D01*
X007825Y014685D01*
X008825Y015685D01*
X008825Y015935D01*
X009065Y016175D01*
X009481Y016175D01*
X009481Y017175D02*
X007436Y017175D01*
X006990Y016729D01*
X006768Y016952D02*
X007126Y017310D01*
X007200Y017310D01*
X006545Y017174D02*
X005950Y016580D01*
X005950Y016310D01*
X005575Y016560D02*
X005575Y016650D01*
X006322Y017397D01*
X006099Y017620D02*
X005325Y016845D01*
X005325Y016810D01*
X004969Y016935D02*
X004950Y016935D01*
X004969Y016935D02*
X005877Y017843D01*
X005654Y018065D02*
X005950Y018361D01*
X005950Y019060D01*
X005225Y019785D01*
X005225Y019925D01*
X005013Y020435D02*
X005700Y020435D01*
X006210Y019925D01*
X006225Y019925D01*
X005575Y019060D02*
X005075Y019060D01*
X004700Y019435D01*
X004700Y020123D01*
X005013Y020435D01*
X004225Y019925D02*
X004210Y019925D01*
X003700Y020435D01*
X002950Y020435D01*
X002700Y020185D01*
X002700Y019685D01*
X003200Y019185D01*
X004138Y019185D01*
X004638Y018685D01*
X004638Y018123D01*
X004700Y018060D01*
X004700Y016185D01*
X004075Y015560D01*
X002703Y015560D01*
X002091Y014947D01*
X002313Y014725D02*
X001950Y014361D01*
X001950Y014310D01*
X001810Y013775D02*
X001810Y013175D01*
X001810Y013775D02*
X002536Y014502D01*
X002950Y014916D01*
X002950Y015185D01*
X002950Y015935D02*
X003700Y016685D01*
X003700Y017569D01*
X003427Y017843D01*
X002449Y018820D01*
X002010Y018820D01*
X002010Y019140D01*
X001225Y019925D01*
X000575Y020560D02*
X000700Y020685D01*
X015700Y020685D01*
X015825Y020560D01*
X014825Y018560D02*
X014657Y018392D01*
X013225Y018392D01*
X012725Y018392D02*
X012725Y019210D01*
X012950Y019435D01*
X013825Y019435D01*
X014825Y017935D02*
X014575Y017685D01*
X013979Y017685D01*
X013969Y017675D01*
X013969Y017175D02*
X013085Y017175D01*
X013075Y017185D01*
X013075Y016685D02*
X013085Y016675D01*
X013969Y016675D01*
X014940Y016675D01*
X014825Y016685D01*
X014815Y017175D02*
X013969Y017175D01*
X013979Y016185D02*
X013969Y016175D01*
X013085Y016175D01*
X013075Y016185D01*
X013075Y015685D02*
X013979Y015685D01*
X013969Y015675D01*
X013979Y015685D02*
X014450Y015685D01*
X015325Y014810D01*
X015325Y012935D01*
X014950Y012560D01*
X014950Y010685D01*
X014700Y010310D02*
X014700Y012685D01*
X015075Y013060D01*
X015075Y014560D01*
X014450Y015185D01*
X013979Y015185D01*
X013075Y015185D01*
X013075Y014685D02*
X013085Y014675D01*
X013969Y014675D01*
X013979Y014685D01*
X014450Y014685D01*
X014825Y014310D01*
X014825Y013185D01*
X014450Y012810D01*
X014450Y009935D01*
X014200Y009560D02*
X014200Y012935D01*
X014575Y013310D01*
X014575Y014060D01*
X014450Y014185D01*
X013979Y014185D01*
X013969Y014175D01*
X013085Y014175D01*
X013075Y014185D01*
X012575Y014185D02*
X013085Y013675D01*
X013969Y013675D01*
X013950Y013531D01*
X013950Y009185D01*
X015200Y011060D02*
X015200Y012435D01*
X015575Y012810D01*
X015575Y015060D01*
X014450Y016185D01*
X013979Y016185D01*
X013979Y015185D02*
X013969Y015175D01*
X014815Y017175D02*
X014825Y017185D01*
X015825Y015435D02*
X015825Y012185D01*
X013225Y012085D02*
X012700Y011560D01*
X011825Y011560D01*
X011575Y011935D02*
X012575Y011935D01*
X012725Y012085D01*
X012725Y012958D01*
X012225Y012958D02*
X012225Y012335D01*
X012200Y012310D01*
X011725Y012958D02*
X011725Y014035D01*
X011700Y014060D01*
X011225Y012958D02*
X011225Y011010D01*
X009775Y011010D01*
X008950Y010185D01*
X008950Y007935D01*
X009325Y007560D01*
X012325Y007560D01*
X012725Y007160D01*
X012725Y003800D01*
X011725Y003800D02*
X011725Y006910D01*
X011325Y007310D01*
X008950Y007310D01*
X008575Y007185D02*
X010725Y005035D01*
X010725Y003800D01*
X009725Y003800D02*
X009725Y005535D01*
X008200Y007060D01*
X007825Y006935D02*
X008725Y006035D01*
X008725Y003800D01*
X007725Y003800D02*
X007725Y006535D01*
X007450Y006810D01*
X006950Y007810D02*
X006570Y007810D01*
X006560Y007800D01*
X006950Y007810D02*
X007155Y008015D01*
X007735Y008015D01*
X008870Y008015D01*
X008950Y007935D01*
X007735Y008915D02*
X006570Y008915D01*
X006560Y008925D01*
X006560Y010050D01*
X006560Y011175D01*
X006560Y012037D01*
X005431Y013166D01*
X004950Y013647D01*
X004950Y013685D01*
X004635Y013870D02*
X006450Y015685D01*
X006921Y015685D01*
X007436Y015170D01*
X006768Y014502D02*
X007084Y014185D01*
X008075Y014185D01*
X009065Y015175D01*
X009481Y015175D01*
X010190Y015175D01*
X010200Y015185D01*
X010200Y014685D02*
X010190Y014675D01*
X009481Y014675D01*
X008940Y014675D01*
X008200Y013935D01*
X006889Y013935D01*
X006545Y014279D01*
X006329Y014056D02*
X006700Y013685D01*
X008325Y013685D01*
X008825Y014185D01*
X009471Y014185D01*
X009481Y014175D01*
X009481Y013675D02*
X008690Y013675D01*
X008450Y013435D01*
X006498Y013435D01*
X006099Y013834D01*
X006322Y014056D02*
X006329Y014056D01*
X005877Y013611D02*
X006303Y013185D01*
X010200Y013185D01*
X010225Y013160D01*
X010225Y012958D01*
X010725Y012958D02*
X010725Y012085D01*
X010700Y012060D01*
X010075Y012060D01*
X009200Y012935D01*
X006107Y012935D01*
X005654Y013388D01*
X005209Y012943D02*
X005325Y012826D01*
X005325Y010060D01*
X005335Y010050D01*
X005335Y009570D01*
X004700Y008935D01*
X004660Y008935D01*
X004650Y008925D01*
X004635Y010070D02*
X004635Y011195D01*
X004635Y013870D01*
X004095Y012943D02*
X003965Y012813D01*
X003965Y011195D01*
X003200Y012310D02*
X003200Y012493D01*
X003872Y013166D01*
X003650Y013388D02*
X002950Y012689D01*
X002950Y011935D01*
X002700Y011560D02*
X002700Y012884D01*
X003427Y013611D01*
X003204Y013834D02*
X002450Y013080D01*
X002450Y011185D01*
X002700Y008935D02*
X002725Y008910D01*
X002725Y003800D01*
X003725Y003800D02*
X003725Y005160D01*
X003450Y005435D01*
X003200Y005435D01*
X003200Y005810D02*
X004075Y005810D01*
X004725Y005160D01*
X004725Y003800D01*
X005725Y003800D02*
X005725Y005285D01*
X004825Y006185D01*
X003450Y006185D01*
X003700Y006560D02*
X005450Y006560D01*
X006725Y005285D01*
X006725Y003800D01*
X005890Y010050D02*
X005335Y010050D01*
X005775Y010050D02*
X005890Y010050D01*
X007450Y010685D02*
X007450Y012685D01*
X007825Y012685D02*
X007825Y010685D01*
X008200Y010685D02*
X008200Y012685D01*
X008575Y012685D02*
X008575Y010685D01*
X008950Y010685D02*
X008950Y012685D01*
X009481Y017675D02*
X009481Y019154D01*
X009450Y019185D01*
X010200Y019435D02*
X010225Y019410D01*
X010225Y018392D01*
X010725Y018392D02*
X010725Y019660D01*
X010700Y019685D01*
X011200Y019935D02*
X011225Y019910D01*
X011225Y018392D01*
X011700Y018417D02*
X011725Y018392D01*
X011700Y018417D02*
X011700Y019935D01*
X013225Y012958D02*
X013225Y012085D01*
X005700Y018557D02*
X005700Y018935D01*
X005575Y019060D01*
X005700Y018557D02*
X005431Y018288D01*
X005209Y018511D02*
X004284Y019435D01*
X003700Y019435D01*
X003225Y019910D01*
X003225Y019925D01*
X004095Y018511D02*
X004450Y018156D01*
X004450Y016435D01*
X004200Y016060D02*
X004200Y017960D01*
X003872Y018288D01*
X003650Y018065D02*
X003950Y017765D01*
X003950Y016435D01*
X003450Y016810D02*
X003450Y017374D01*
X003204Y017620D01*
X002981Y017397D02*
X002575Y017804D01*
X002575Y017810D01*
M02*
