G75*
%MOIN*%
%OFA0B0*%
%FSLAX24Y24*%
%IPPOS*%
%LPD*%
%AMOC8*
5,1,8,0,0,1.08239X$1,22.5*
%
%ADD10C,0.0160*%
%ADD11R,0.1000X0.1000*%
%ADD12C,0.0000*%
%ADD13C,0.0040*%
%ADD14R,0.0571X0.0295*%
%ADD15C,0.0050*%
%ADD16C,0.0080*%
%ADD17C,0.0100*%
%ADD18R,0.0173X0.0697*%
%ADD19R,0.0173X0.0697*%
%ADD20R,0.0173X0.0697*%
%ADD21R,0.0697X0.0173*%
%ADD22R,0.0697X0.0173*%
%ADD23R,0.0697X0.0173*%
%ADD24C,0.0020*%
%ADD25C,0.0240*%
%ADD26R,0.0209X0.0228*%
%ADD27R,0.0228X0.0209*%
%ADD28R,0.0220X0.0140*%
%ADD29R,0.0300X0.0100*%
%ADD30R,0.0150X0.0600*%
%ADD31C,0.0008*%
%ADD32C,0.0060*%
%ADD33R,0.0200X0.0200*%
%ADD34R,0.0600X0.1200*%
%ADD35R,0.0600X0.0300*%
%ADD36R,0.0295X0.0571*%
%ADD37R,0.0256X0.0551*%
%ADD38C,0.0070*%
D10*
X008350Y011925D02*
X008350Y019425D01*
X015100Y019425D01*
X015100Y011925D01*
X008350Y011925D01*
D11*
X001200Y019935D03*
D12*
X001850Y002300D02*
X014600Y002300D01*
X014600Y008300D01*
X016350Y010300D01*
X016350Y016050D01*
X015725Y016050D01*
X015725Y017800D01*
X016350Y017800D01*
X016350Y021050D01*
X000100Y021050D01*
X000100Y017800D01*
X000725Y017800D01*
X000725Y016050D01*
X000100Y016050D01*
X000100Y010300D01*
X001850Y008300D01*
X001850Y002300D01*
X000443Y016175D02*
X000445Y016200D01*
X000451Y016224D01*
X000460Y016246D01*
X000473Y016267D01*
X000489Y016286D01*
X000508Y016302D01*
X000529Y016315D01*
X000551Y016324D01*
X000575Y016330D01*
X000600Y016332D01*
X000625Y016330D01*
X000649Y016324D01*
X000671Y016315D01*
X000692Y016302D01*
X000711Y016286D01*
X000727Y016267D01*
X000740Y016246D01*
X000749Y016224D01*
X000755Y016200D01*
X000757Y016175D01*
X000755Y016150D01*
X000749Y016126D01*
X000740Y016104D01*
X000727Y016083D01*
X000711Y016064D01*
X000692Y016048D01*
X000671Y016035D01*
X000649Y016026D01*
X000625Y016020D01*
X000600Y016018D01*
X000575Y016020D01*
X000551Y016026D01*
X000529Y016035D01*
X000508Y016048D01*
X000489Y016064D01*
X000473Y016083D01*
X000460Y016104D01*
X000451Y016126D01*
X000445Y016150D01*
X000443Y016175D01*
X000443Y017675D02*
X000445Y017700D01*
X000451Y017724D01*
X000460Y017746D01*
X000473Y017767D01*
X000489Y017786D01*
X000508Y017802D01*
X000529Y017815D01*
X000551Y017824D01*
X000575Y017830D01*
X000600Y017832D01*
X000625Y017830D01*
X000649Y017824D01*
X000671Y017815D01*
X000692Y017802D01*
X000711Y017786D01*
X000727Y017767D01*
X000740Y017746D01*
X000749Y017724D01*
X000755Y017700D01*
X000757Y017675D01*
X000755Y017650D01*
X000749Y017626D01*
X000740Y017604D01*
X000727Y017583D01*
X000711Y017564D01*
X000692Y017548D01*
X000671Y017535D01*
X000649Y017526D01*
X000625Y017520D01*
X000600Y017518D01*
X000575Y017520D01*
X000551Y017526D01*
X000529Y017535D01*
X000508Y017548D01*
X000489Y017564D01*
X000473Y017583D01*
X000460Y017604D01*
X000451Y017626D01*
X000445Y017650D01*
X000443Y017675D01*
X015693Y017675D02*
X015695Y017700D01*
X015701Y017724D01*
X015710Y017746D01*
X015723Y017767D01*
X015739Y017786D01*
X015758Y017802D01*
X015779Y017815D01*
X015801Y017824D01*
X015825Y017830D01*
X015850Y017832D01*
X015875Y017830D01*
X015899Y017824D01*
X015921Y017815D01*
X015942Y017802D01*
X015961Y017786D01*
X015977Y017767D01*
X015990Y017746D01*
X015999Y017724D01*
X016005Y017700D01*
X016007Y017675D01*
X016005Y017650D01*
X015999Y017626D01*
X015990Y017604D01*
X015977Y017583D01*
X015961Y017564D01*
X015942Y017548D01*
X015921Y017535D01*
X015899Y017526D01*
X015875Y017520D01*
X015850Y017518D01*
X015825Y017520D01*
X015801Y017526D01*
X015779Y017535D01*
X015758Y017548D01*
X015739Y017564D01*
X015723Y017583D01*
X015710Y017604D01*
X015701Y017626D01*
X015695Y017650D01*
X015693Y017675D01*
X015693Y016175D02*
X015695Y016200D01*
X015701Y016224D01*
X015710Y016246D01*
X015723Y016267D01*
X015739Y016286D01*
X015758Y016302D01*
X015779Y016315D01*
X015801Y016324D01*
X015825Y016330D01*
X015850Y016332D01*
X015875Y016330D01*
X015899Y016324D01*
X015921Y016315D01*
X015942Y016302D01*
X015961Y016286D01*
X015977Y016267D01*
X015990Y016246D01*
X015999Y016224D01*
X016005Y016200D01*
X016007Y016175D01*
X016005Y016150D01*
X015999Y016126D01*
X015990Y016104D01*
X015977Y016083D01*
X015961Y016064D01*
X015942Y016048D01*
X015921Y016035D01*
X015899Y016026D01*
X015875Y016020D01*
X015850Y016018D01*
X015825Y016020D01*
X015801Y016026D01*
X015779Y016035D01*
X015758Y016048D01*
X015739Y016064D01*
X015723Y016083D01*
X015710Y016104D01*
X015701Y016126D01*
X015695Y016150D01*
X015693Y016175D01*
D13*
X011485Y010825D02*
X011485Y010535D01*
X010965Y010525D02*
X010965Y010825D01*
X006375Y010915D02*
X006075Y010915D01*
X006075Y011435D02*
X006365Y011435D01*
X006375Y009185D02*
X006075Y009185D01*
X006085Y008665D02*
X006375Y008665D01*
X006375Y008060D02*
X006075Y008060D01*
X006085Y007540D02*
X006375Y007540D01*
X004450Y009810D02*
X004150Y009810D01*
X004150Y010330D02*
X004440Y010330D01*
X001625Y012915D02*
X001325Y012915D01*
X001325Y013435D02*
X001615Y013435D01*
X001525Y018560D02*
X001825Y018560D01*
X001815Y019080D02*
X001525Y019080D01*
D14*
X011225Y010963D03*
X011225Y010393D03*
D15*
X010701Y010565D02*
X010520Y010565D01*
X010701Y010745D01*
X010701Y010790D01*
X010655Y010835D01*
X010565Y010835D01*
X010520Y010790D01*
X010406Y010790D02*
X010361Y010835D01*
X010271Y010835D01*
X010226Y010790D01*
X010226Y010610D01*
X010271Y010565D01*
X010361Y010565D01*
X010406Y010610D01*
X005486Y011125D02*
X005440Y011080D01*
X005350Y011080D01*
X005305Y011125D01*
X005305Y011215D02*
X005395Y011260D01*
X005440Y011260D01*
X005486Y011215D01*
X005486Y011125D01*
X005305Y011215D02*
X005305Y011350D01*
X005486Y011350D01*
X005191Y011305D02*
X005146Y011350D01*
X005056Y011350D01*
X005011Y011305D01*
X005011Y011125D01*
X005056Y011080D01*
X005146Y011080D01*
X005191Y011125D01*
X005096Y010195D02*
X005141Y010150D01*
X005141Y010060D01*
X005096Y010015D01*
X004961Y010015D01*
X005051Y010015D02*
X005141Y009925D01*
X005255Y009925D02*
X005436Y010105D01*
X005436Y010150D01*
X005390Y010195D01*
X005300Y010195D01*
X005255Y010150D01*
X005096Y010195D02*
X004961Y010195D01*
X004961Y009925D01*
X005255Y009925D02*
X005436Y009925D01*
X005390Y009120D02*
X005436Y009075D01*
X005436Y009030D01*
X005390Y008985D01*
X005436Y008940D01*
X005436Y008895D01*
X005390Y008850D01*
X005300Y008850D01*
X005255Y008895D01*
X005141Y008895D02*
X005096Y008850D01*
X005006Y008850D01*
X004961Y008895D01*
X004961Y009075D01*
X005006Y009120D01*
X005096Y009120D01*
X005141Y009075D01*
X005255Y009075D02*
X005300Y009120D01*
X005390Y009120D01*
X005390Y008985D02*
X005345Y008985D01*
X005345Y008020D02*
X005345Y007750D01*
X005255Y007750D02*
X005436Y007750D01*
X005255Y007930D02*
X005345Y008020D01*
X005141Y007975D02*
X005096Y008020D01*
X005006Y008020D01*
X004961Y007975D01*
X004961Y007795D01*
X005006Y007750D01*
X005096Y007750D01*
X005141Y007795D01*
X004474Y008652D02*
X004451Y008925D01*
X004451Y008925D01*
X004474Y009198D01*
X004475Y009199D01*
X004507Y009194D01*
X004539Y009185D01*
X004569Y009173D01*
X004597Y009157D01*
X004624Y009138D01*
X004648Y009116D01*
X004669Y009092D01*
X004687Y009065D01*
X004702Y009036D01*
X004713Y009005D01*
X004721Y008974D01*
X004725Y008941D01*
X004725Y008909D01*
X004721Y008876D01*
X004713Y008845D01*
X004702Y008814D01*
X004687Y008785D01*
X004669Y008758D01*
X004648Y008734D01*
X004624Y008712D01*
X004597Y008693D01*
X004569Y008677D01*
X004539Y008665D01*
X004507Y008656D01*
X004475Y008651D01*
X004475Y008698D01*
X004503Y008703D01*
X004531Y008712D01*
X004557Y008724D01*
X004582Y008739D01*
X004605Y008757D01*
X004625Y008778D01*
X004642Y008802D01*
X004656Y008827D01*
X004667Y008854D01*
X004674Y008882D01*
X004678Y008911D01*
X004678Y008939D01*
X004674Y008968D01*
X004667Y008996D01*
X004656Y009023D01*
X004642Y009048D01*
X004625Y009072D01*
X004605Y009093D01*
X004582Y009111D01*
X004557Y009126D01*
X004531Y009138D01*
X004503Y009147D01*
X004475Y009152D01*
X004475Y009104D01*
X004500Y009099D01*
X004525Y009090D01*
X004547Y009078D01*
X004568Y009062D01*
X004587Y009044D01*
X004602Y009023D01*
X004615Y009000D01*
X004624Y008976D01*
X004629Y008951D01*
X004631Y008925D01*
X004629Y008899D01*
X004624Y008874D01*
X004615Y008850D01*
X004602Y008827D01*
X004587Y008806D01*
X004568Y008788D01*
X004547Y008772D01*
X004525Y008760D01*
X004500Y008751D01*
X004475Y008746D01*
X004475Y008793D01*
X004496Y008799D01*
X004516Y008808D01*
X004534Y008820D01*
X004550Y008835D01*
X004563Y008853D01*
X004573Y008872D01*
X004580Y008893D01*
X004584Y008914D01*
X004584Y008936D01*
X004580Y008957D01*
X004573Y008978D01*
X004563Y008997D01*
X004550Y009015D01*
X004534Y009030D01*
X004516Y009042D01*
X004496Y009051D01*
X004475Y009057D01*
X004475Y009008D01*
X004491Y009002D01*
X004505Y008993D01*
X004517Y008980D01*
X004527Y008966D01*
X004533Y008950D01*
X004537Y008934D01*
X004537Y008916D01*
X004533Y008900D01*
X004527Y008884D01*
X004517Y008870D01*
X004505Y008857D01*
X004491Y008848D01*
X004475Y008842D01*
X004473Y008893D01*
X004481Y008900D01*
X004487Y008909D01*
X004490Y008920D01*
X004490Y008930D01*
X004487Y008941D01*
X004481Y008950D01*
X004473Y008957D01*
X004226Y009198D02*
X004249Y008925D01*
X004249Y008925D01*
X004226Y008652D01*
X004225Y008651D01*
X004193Y008656D01*
X004161Y008665D01*
X004131Y008677D01*
X004103Y008693D01*
X004076Y008712D01*
X004052Y008734D01*
X004031Y008758D01*
X004013Y008785D01*
X003998Y008814D01*
X003987Y008845D01*
X003979Y008876D01*
X003975Y008909D01*
X003975Y008941D01*
X003979Y008974D01*
X003987Y009005D01*
X003998Y009036D01*
X004013Y009065D01*
X004031Y009092D01*
X004052Y009116D01*
X004076Y009138D01*
X004103Y009157D01*
X004131Y009173D01*
X004161Y009185D01*
X004193Y009194D01*
X004225Y009199D01*
X004225Y009152D01*
X004197Y009147D01*
X004169Y009138D01*
X004143Y009126D01*
X004118Y009111D01*
X004095Y009093D01*
X004075Y009072D01*
X004058Y009048D01*
X004044Y009023D01*
X004033Y008996D01*
X004026Y008968D01*
X004022Y008939D01*
X004022Y008911D01*
X004026Y008882D01*
X004033Y008854D01*
X004044Y008827D01*
X004058Y008802D01*
X004075Y008778D01*
X004095Y008757D01*
X004118Y008739D01*
X004143Y008724D01*
X004169Y008712D01*
X004197Y008703D01*
X004225Y008698D01*
X004225Y008746D01*
X004200Y008751D01*
X004175Y008760D01*
X004153Y008772D01*
X004132Y008788D01*
X004113Y008806D01*
X004098Y008827D01*
X004085Y008850D01*
X004076Y008874D01*
X004071Y008899D01*
X004069Y008925D01*
X004071Y008951D01*
X004076Y008976D01*
X004085Y009000D01*
X004098Y009023D01*
X004113Y009044D01*
X004132Y009062D01*
X004153Y009078D01*
X004175Y009090D01*
X004200Y009099D01*
X004225Y009104D01*
X004225Y009057D01*
X004204Y009051D01*
X004184Y009042D01*
X004166Y009030D01*
X004150Y009015D01*
X004137Y008997D01*
X004127Y008978D01*
X004120Y008957D01*
X004116Y008936D01*
X004116Y008914D01*
X004120Y008893D01*
X004127Y008872D01*
X004137Y008853D01*
X004150Y008835D01*
X004166Y008820D01*
X004184Y008808D01*
X004204Y008799D01*
X004225Y008793D01*
X004225Y008842D01*
X004209Y008848D01*
X004195Y008857D01*
X004183Y008870D01*
X004173Y008884D01*
X004167Y008900D01*
X004163Y008916D01*
X004163Y008934D01*
X004167Y008950D01*
X004173Y008966D01*
X004183Y008980D01*
X004195Y008993D01*
X004209Y009002D01*
X004225Y009008D01*
X004227Y008957D01*
X004219Y008950D01*
X004213Y008941D01*
X004210Y008930D01*
X004210Y008920D01*
X004213Y008909D01*
X004219Y008900D01*
X004227Y008893D01*
X003320Y009875D02*
X003320Y009920D01*
X003500Y010100D01*
X003500Y010145D01*
X003320Y010145D01*
X003205Y010100D02*
X003160Y010145D01*
X003070Y010145D01*
X003025Y010100D01*
X003025Y009920D01*
X003070Y009875D01*
X003160Y009875D01*
X003205Y009920D01*
X003205Y011050D02*
X003115Y011140D01*
X003160Y011140D02*
X003025Y011140D01*
X003025Y011050D02*
X003025Y011320D01*
X003160Y011320D01*
X003205Y011275D01*
X003205Y011185D01*
X003160Y011140D01*
X003320Y011050D02*
X003500Y011050D01*
X003410Y011050D02*
X003410Y011320D01*
X003320Y011230D01*
X000690Y013080D02*
X000690Y013350D01*
X000555Y013215D01*
X000736Y013215D01*
X000441Y013125D02*
X000396Y013080D01*
X000306Y013080D01*
X000261Y013125D01*
X000261Y013305D01*
X000306Y013350D01*
X000396Y013350D01*
X000441Y013305D01*
X000471Y018725D02*
X000516Y018770D01*
X000471Y018725D02*
X000381Y018725D01*
X000336Y018770D01*
X000336Y018950D01*
X000381Y018995D01*
X000471Y018995D01*
X000516Y018950D01*
X000630Y018860D02*
X000765Y018860D01*
X000811Y018815D01*
X000811Y018770D01*
X000765Y018725D01*
X000675Y018725D01*
X000630Y018770D01*
X000630Y018860D01*
X000720Y018950D01*
X000811Y018995D01*
D16*
X001918Y015727D02*
X004652Y012993D01*
X007386Y015727D01*
X004652Y018461D01*
X001918Y015727D01*
X002029Y015727D02*
X004652Y018349D01*
X007277Y015724D01*
X004655Y013102D01*
X002029Y015727D01*
X009516Y018403D02*
X009516Y012947D01*
X013603Y012947D01*
X013934Y013277D01*
X013934Y018403D01*
X009516Y018403D01*
X011285Y015925D02*
X011255Y015923D01*
X011225Y015918D01*
X011196Y015909D01*
X011169Y015896D01*
X011143Y015881D01*
X011119Y015862D01*
X011098Y015841D01*
X011079Y015817D01*
X011064Y015791D01*
X011051Y015764D01*
X011042Y015735D01*
X011037Y015705D01*
X011035Y015675D01*
X011037Y015645D01*
X011042Y015615D01*
X011051Y015586D01*
X011064Y015559D01*
X011079Y015533D01*
X011098Y015509D01*
X011119Y015488D01*
X011143Y015469D01*
X011169Y015454D01*
X011196Y015441D01*
X011225Y015432D01*
X011255Y015427D01*
X011285Y015425D01*
D17*
X011285Y015465D02*
X011258Y015467D01*
X011231Y015472D01*
X011205Y015481D01*
X011180Y015493D01*
X011157Y015508D01*
X011137Y015527D01*
X011118Y015547D01*
X011103Y015570D01*
X011091Y015595D01*
X011082Y015621D01*
X011077Y015648D01*
X011075Y015675D01*
X011077Y015702D01*
X011082Y015729D01*
X011091Y015755D01*
X011103Y015780D01*
X011118Y015803D01*
X011137Y015823D01*
X011157Y015842D01*
X011180Y015857D01*
X011205Y015869D01*
X011231Y015878D01*
X011258Y015883D01*
X011285Y015885D01*
X006543Y015727D02*
X006545Y015754D01*
X006551Y015781D01*
X006560Y015807D01*
X006573Y015831D01*
X006589Y015854D01*
X006608Y015873D01*
X006630Y015890D01*
X006654Y015904D01*
X006679Y015914D01*
X006706Y015921D01*
X006733Y015924D01*
X006761Y015923D01*
X006788Y015918D01*
X006814Y015910D01*
X006838Y015898D01*
X006861Y015882D01*
X006882Y015864D01*
X006899Y015843D01*
X006914Y015819D01*
X006925Y015794D01*
X006933Y015768D01*
X006937Y015741D01*
X006937Y015713D01*
X006933Y015686D01*
X006925Y015660D01*
X006914Y015635D01*
X006899Y015611D01*
X006882Y015590D01*
X006861Y015572D01*
X006839Y015556D01*
X006814Y015544D01*
X006788Y015536D01*
X006761Y015531D01*
X006733Y015530D01*
X006706Y015533D01*
X006679Y015540D01*
X006654Y015550D01*
X006630Y015564D01*
X006608Y015581D01*
X006589Y015600D01*
X006573Y015623D01*
X006560Y015647D01*
X006551Y015673D01*
X006545Y015700D01*
X006543Y015727D01*
D18*
G36*
X007575Y016544D02*
X007696Y016423D01*
X007205Y015932D01*
X007084Y016053D01*
X007575Y016544D01*
G37*
G36*
X006461Y017657D02*
X006582Y017536D01*
X006091Y017045D01*
X005970Y017166D01*
X006461Y017657D01*
G37*
G36*
X005348Y018771D02*
X005469Y018650D01*
X004978Y018159D01*
X004857Y018280D01*
X005348Y018771D01*
G37*
G36*
X002099Y015522D02*
X002220Y015401D01*
X001729Y014910D01*
X001608Y015031D01*
X002099Y015522D01*
G37*
G36*
X003212Y014408D02*
X003333Y014287D01*
X002842Y013796D01*
X002721Y013917D01*
X003212Y014408D01*
G37*
G36*
X004326Y013295D02*
X004447Y013174D01*
X003956Y012683D01*
X003835Y012804D01*
X004326Y013295D01*
G37*
D19*
G36*
X004103Y013518D02*
X004224Y013397D01*
X003733Y012906D01*
X003612Y013027D01*
X004103Y013518D01*
G37*
G36*
X003435Y014186D02*
X003556Y014065D01*
X003065Y013574D01*
X002944Y013695D01*
X003435Y014186D01*
G37*
G36*
X002990Y014631D02*
X003111Y014510D01*
X002620Y014019D01*
X002499Y014140D01*
X002990Y014631D01*
G37*
G36*
X002322Y015299D02*
X002443Y015178D01*
X001952Y014687D01*
X001831Y014808D01*
X002322Y015299D01*
G37*
G36*
X005570Y018548D02*
X005691Y018427D01*
X005200Y017936D01*
X005079Y018057D01*
X005570Y018548D01*
G37*
G36*
X006238Y017880D02*
X006359Y017759D01*
X005868Y017268D01*
X005747Y017389D01*
X006238Y017880D01*
G37*
G36*
X006684Y017434D02*
X006805Y017313D01*
X006314Y016822D01*
X006193Y016943D01*
X006684Y017434D01*
G37*
G36*
X007352Y016766D02*
X007473Y016645D01*
X006982Y016154D01*
X006861Y016275D01*
X007352Y016766D01*
G37*
D20*
G36*
X007129Y016989D02*
X007250Y016868D01*
X006759Y016377D01*
X006638Y016498D01*
X007129Y016989D01*
G37*
G36*
X006907Y017212D02*
X007028Y017091D01*
X006537Y016600D01*
X006416Y016721D01*
X006907Y017212D01*
G37*
G36*
X006016Y018103D02*
X006137Y017982D01*
X005646Y017491D01*
X005525Y017612D01*
X006016Y018103D01*
G37*
G36*
X005793Y018325D02*
X005914Y018204D01*
X005423Y017713D01*
X005302Y017834D01*
X005793Y018325D01*
G37*
G36*
X002767Y014854D02*
X002888Y014733D01*
X002397Y014242D01*
X002276Y014363D01*
X002767Y014854D01*
G37*
G36*
X002544Y015077D02*
X002665Y014956D01*
X002174Y014465D01*
X002053Y014586D01*
X002544Y015077D01*
G37*
G36*
X003658Y013963D02*
X003779Y013842D01*
X003288Y013351D01*
X003167Y013472D01*
X003658Y013963D01*
G37*
G36*
X003881Y013740D02*
X004002Y013619D01*
X003511Y013128D01*
X003390Y013249D01*
X003881Y013740D01*
G37*
D21*
G36*
X004978Y013295D02*
X005469Y012804D01*
X005348Y012683D01*
X004857Y013174D01*
X004978Y013295D01*
G37*
G36*
X006091Y014408D02*
X006582Y013917D01*
X006461Y013796D01*
X005970Y014287D01*
X006091Y014408D01*
G37*
G36*
X007205Y015522D02*
X007696Y015031D01*
X007575Y014910D01*
X007084Y015401D01*
X007205Y015522D01*
G37*
G36*
X003956Y018771D02*
X004447Y018280D01*
X004326Y018159D01*
X003835Y018650D01*
X003956Y018771D01*
G37*
G36*
X002842Y017657D02*
X003333Y017166D01*
X003212Y017045D01*
X002721Y017536D01*
X002842Y017657D01*
G37*
G36*
X001729Y016544D02*
X002220Y016053D01*
X002099Y015932D01*
X001608Y016423D01*
X001729Y016544D01*
G37*
D22*
G36*
X001952Y016766D02*
X002443Y016275D01*
X002322Y016154D01*
X001831Y016645D01*
X001952Y016766D01*
G37*
G36*
X002620Y017434D02*
X003111Y016943D01*
X002990Y016822D01*
X002499Y017313D01*
X002620Y017434D01*
G37*
G36*
X003065Y017880D02*
X003556Y017389D01*
X003435Y017268D01*
X002944Y017759D01*
X003065Y017880D01*
G37*
G36*
X003733Y018548D02*
X004224Y018057D01*
X004103Y017936D01*
X003612Y018427D01*
X003733Y018548D01*
G37*
G36*
X006314Y014631D02*
X006805Y014140D01*
X006684Y014019D01*
X006193Y014510D01*
X006314Y014631D01*
G37*
G36*
X005868Y014186D02*
X006359Y013695D01*
X006238Y013574D01*
X005747Y014065D01*
X005868Y014186D01*
G37*
G36*
X005200Y013518D02*
X005691Y013027D01*
X005570Y012906D01*
X005079Y013397D01*
X005200Y013518D01*
G37*
G36*
X006982Y015299D02*
X007473Y014808D01*
X007352Y014687D01*
X006861Y015178D01*
X006982Y015299D01*
G37*
D23*
G36*
X006759Y015077D02*
X007250Y014586D01*
X007129Y014465D01*
X006638Y014956D01*
X006759Y015077D01*
G37*
G36*
X006537Y014854D02*
X007028Y014363D01*
X006907Y014242D01*
X006416Y014733D01*
X006537Y014854D01*
G37*
G36*
X005646Y013963D02*
X006137Y013472D01*
X006016Y013351D01*
X005525Y013842D01*
X005646Y013963D01*
G37*
G36*
X005423Y013740D02*
X005914Y013249D01*
X005793Y013128D01*
X005302Y013619D01*
X005423Y013740D01*
G37*
G36*
X002397Y017212D02*
X002888Y016721D01*
X002767Y016600D01*
X002276Y017091D01*
X002397Y017212D01*
G37*
G36*
X002174Y016989D02*
X002665Y016498D01*
X002544Y016377D01*
X002053Y016868D01*
X002174Y016989D01*
G37*
G36*
X003288Y018103D02*
X003779Y017612D01*
X003658Y017491D01*
X003167Y017982D01*
X003288Y018103D01*
G37*
G36*
X003511Y018325D02*
X004002Y017834D01*
X003881Y017713D01*
X003390Y018204D01*
X003511Y018325D01*
G37*
D24*
X011285Y015965D02*
X011253Y015963D01*
X011220Y015958D01*
X011189Y015949D01*
X011159Y015936D01*
X011131Y015921D01*
X011104Y015902D01*
X011080Y015880D01*
X011058Y015856D01*
X011039Y015829D01*
X011024Y015801D01*
X011011Y015771D01*
X011002Y015740D01*
X010997Y015707D01*
X010995Y015675D01*
X010997Y015643D01*
X011002Y015610D01*
X011011Y015579D01*
X011024Y015549D01*
X011039Y015521D01*
X011058Y015494D01*
X011080Y015470D01*
X011104Y015448D01*
X011131Y015429D01*
X011159Y015414D01*
X011189Y015401D01*
X011220Y015392D01*
X011253Y015387D01*
X011285Y015385D01*
D25*
X011607Y013746D02*
X011609Y013767D01*
X011615Y013787D01*
X011624Y013807D01*
X011636Y013824D01*
X011651Y013838D01*
X011669Y013850D01*
X011689Y013858D01*
X011709Y013863D01*
X011730Y013864D01*
X011751Y013861D01*
X011771Y013855D01*
X011790Y013844D01*
X011807Y013831D01*
X011820Y013815D01*
X011831Y013797D01*
X011839Y013777D01*
X011843Y013757D01*
X011843Y013735D01*
X011839Y013715D01*
X011831Y013695D01*
X011820Y013677D01*
X011807Y013661D01*
X011790Y013648D01*
X011771Y013637D01*
X011751Y013631D01*
X011730Y013628D01*
X011709Y013629D01*
X011689Y013634D01*
X011669Y013642D01*
X011651Y013654D01*
X011636Y013668D01*
X011624Y013685D01*
X011615Y013705D01*
X011609Y013725D01*
X011607Y013746D01*
D26*
X011723Y012825D03*
X011223Y012825D03*
X010723Y012825D03*
X010223Y012825D03*
X012223Y012825D03*
X012723Y012825D03*
X013223Y012825D03*
X013227Y018525D03*
X012727Y018525D03*
X012227Y018525D03*
X011727Y018525D03*
X011227Y018525D03*
X010727Y018525D03*
X010227Y018525D03*
D27*
X009347Y017677D03*
X009347Y017177D03*
X009347Y016677D03*
X009347Y016177D03*
X009347Y015677D03*
X009347Y015177D03*
X009347Y014677D03*
X009347Y014177D03*
X009347Y013677D03*
X014103Y013673D03*
X014103Y014173D03*
X014103Y014673D03*
X014103Y015173D03*
X014103Y015673D03*
X014103Y016173D03*
X014103Y016673D03*
X014103Y017173D03*
X014103Y017673D03*
D28*
X011385Y015905D03*
X011385Y015445D03*
D29*
X012775Y015775D03*
D30*
X011450Y015675D03*
D31*
X011625Y015673D02*
X011775Y015673D01*
X011775Y015679D02*
X011625Y015679D01*
X011625Y015686D02*
X011775Y015686D01*
X011775Y015692D02*
X011625Y015692D01*
X011625Y015698D02*
X011775Y015698D01*
X011775Y015705D02*
X011625Y015705D01*
X011625Y015711D02*
X011775Y015711D01*
X011775Y015718D02*
X011625Y015718D01*
X011625Y015724D02*
X011775Y015724D01*
X011775Y015730D02*
X011625Y015730D01*
X011625Y015737D02*
X011775Y015737D01*
X011775Y015743D02*
X011625Y015743D01*
X011625Y015749D02*
X011775Y015749D01*
X011775Y015756D02*
X011625Y015756D01*
X011625Y015762D02*
X011775Y015762D01*
X011775Y015769D02*
X011625Y015769D01*
X011625Y015775D02*
X011775Y015775D01*
X011775Y015781D02*
X011625Y015781D01*
X011625Y015788D02*
X011775Y015788D01*
X011775Y015794D02*
X011625Y015794D01*
X011625Y015800D02*
X011775Y015800D01*
X011775Y015807D02*
X011625Y015807D01*
X011625Y015813D02*
X011775Y015813D01*
X011775Y015820D02*
X011625Y015820D01*
X011625Y015826D02*
X011775Y015826D01*
X011775Y015832D02*
X011625Y015832D01*
X011625Y015839D02*
X011775Y015839D01*
X011775Y015845D02*
X011625Y015845D01*
X011625Y015851D02*
X011775Y015851D01*
X011775Y015858D02*
X011625Y015858D01*
X011625Y015864D02*
X011775Y015864D01*
X011775Y015871D02*
X011625Y015871D01*
X011625Y015877D02*
X011775Y015877D01*
X011775Y015883D02*
X011625Y015883D01*
X011625Y015890D02*
X011775Y015890D01*
X011775Y015896D02*
X011625Y015896D01*
X011625Y015902D02*
X011775Y015902D01*
X011775Y015909D02*
X011625Y015909D01*
X011625Y015915D02*
X011775Y015915D01*
X011775Y015922D02*
X011625Y015922D01*
X011625Y015928D02*
X011775Y015928D01*
X011775Y015934D02*
X011625Y015934D01*
X011625Y015941D02*
X011775Y015941D01*
X011775Y015947D02*
X011625Y015947D01*
X011625Y015953D02*
X011775Y015953D01*
X011775Y015960D02*
X011625Y015960D01*
X011625Y015966D02*
X011775Y015966D01*
X011775Y015973D02*
X011625Y015973D01*
X011625Y015975D02*
X011775Y015975D01*
X011775Y015575D01*
X011975Y015775D01*
X012175Y015575D01*
X012175Y015975D01*
X012325Y015975D01*
X012325Y015375D01*
X012175Y015375D01*
X011975Y015575D01*
X011775Y015375D01*
X011625Y015375D01*
X011625Y015975D01*
X011625Y015667D02*
X011775Y015667D01*
X011775Y015660D02*
X011625Y015660D01*
X011625Y015654D02*
X011775Y015654D01*
X011775Y015647D02*
X011625Y015647D01*
X011625Y015641D02*
X011775Y015641D01*
X011775Y015635D02*
X011625Y015635D01*
X011625Y015628D02*
X011775Y015628D01*
X011775Y015622D02*
X011625Y015622D01*
X011625Y015616D02*
X011775Y015616D01*
X011775Y015609D02*
X011625Y015609D01*
X011625Y015603D02*
X011775Y015603D01*
X011775Y015596D02*
X011625Y015596D01*
X011625Y015590D02*
X011775Y015590D01*
X011775Y015584D02*
X011625Y015584D01*
X011625Y015577D02*
X011775Y015577D01*
X011777Y015577D02*
X012173Y015577D01*
X012175Y015577D02*
X012325Y015577D01*
X012325Y015571D02*
X011979Y015571D01*
X011971Y015571D02*
X011625Y015571D01*
X011625Y015565D02*
X011965Y015565D01*
X011958Y015558D02*
X011625Y015558D01*
X011625Y015552D02*
X011952Y015552D01*
X011945Y015545D02*
X011625Y015545D01*
X011625Y015539D02*
X011939Y015539D01*
X011933Y015533D02*
X011625Y015533D01*
X011625Y015526D02*
X011926Y015526D01*
X011920Y015520D02*
X011625Y015520D01*
X011625Y015514D02*
X011914Y015514D01*
X011907Y015507D02*
X011625Y015507D01*
X011625Y015501D02*
X011901Y015501D01*
X011894Y015494D02*
X011625Y015494D01*
X011625Y015488D02*
X011888Y015488D01*
X011882Y015482D02*
X011625Y015482D01*
X011625Y015475D02*
X011875Y015475D01*
X011869Y015469D02*
X011625Y015469D01*
X011625Y015463D02*
X011863Y015463D01*
X011856Y015456D02*
X011625Y015456D01*
X011625Y015450D02*
X011850Y015450D01*
X011843Y015443D02*
X011625Y015443D01*
X011625Y015437D02*
X011837Y015437D01*
X011831Y015431D02*
X011625Y015431D01*
X011625Y015424D02*
X011824Y015424D01*
X011818Y015418D02*
X011625Y015418D01*
X011625Y015412D02*
X011812Y015412D01*
X011805Y015405D02*
X011625Y015405D01*
X011625Y015399D02*
X011799Y015399D01*
X011792Y015392D02*
X011625Y015392D01*
X011625Y015386D02*
X011786Y015386D01*
X011780Y015380D02*
X011625Y015380D01*
X011784Y015584D02*
X012166Y015584D01*
X012160Y015590D02*
X011790Y015590D01*
X011796Y015596D02*
X012154Y015596D01*
X012147Y015603D02*
X011803Y015603D01*
X011809Y015609D02*
X012141Y015609D01*
X012134Y015616D02*
X011816Y015616D01*
X011822Y015622D02*
X012128Y015622D01*
X012122Y015628D02*
X011828Y015628D01*
X011835Y015635D02*
X012115Y015635D01*
X012109Y015641D02*
X011841Y015641D01*
X011847Y015647D02*
X012103Y015647D01*
X012096Y015654D02*
X011854Y015654D01*
X011860Y015660D02*
X012090Y015660D01*
X012083Y015667D02*
X011867Y015667D01*
X011873Y015673D02*
X012077Y015673D01*
X012071Y015679D02*
X011879Y015679D01*
X011886Y015686D02*
X012064Y015686D01*
X012058Y015692D02*
X011892Y015692D01*
X011898Y015698D02*
X012052Y015698D01*
X012045Y015705D02*
X011905Y015705D01*
X011911Y015711D02*
X012039Y015711D01*
X012032Y015718D02*
X011918Y015718D01*
X011924Y015724D02*
X012026Y015724D01*
X012020Y015730D02*
X011930Y015730D01*
X011937Y015737D02*
X012013Y015737D01*
X012007Y015743D02*
X011943Y015743D01*
X011949Y015749D02*
X012001Y015749D01*
X011994Y015756D02*
X011956Y015756D01*
X011962Y015762D02*
X011988Y015762D01*
X011981Y015769D02*
X011969Y015769D01*
X011975Y015775D02*
X011975Y015775D01*
X011985Y015565D02*
X012325Y015565D01*
X012325Y015558D02*
X011992Y015558D01*
X011998Y015552D02*
X012325Y015552D01*
X012325Y015545D02*
X012005Y015545D01*
X012011Y015539D02*
X012325Y015539D01*
X012325Y015533D02*
X012017Y015533D01*
X012024Y015526D02*
X012325Y015526D01*
X012325Y015520D02*
X012030Y015520D01*
X012036Y015514D02*
X012325Y015514D01*
X012325Y015507D02*
X012043Y015507D01*
X012049Y015501D02*
X012325Y015501D01*
X012325Y015494D02*
X012056Y015494D01*
X012062Y015488D02*
X012325Y015488D01*
X012325Y015482D02*
X012068Y015482D01*
X012075Y015475D02*
X012325Y015475D01*
X012325Y015469D02*
X012081Y015469D01*
X012087Y015463D02*
X012325Y015463D01*
X012325Y015456D02*
X012094Y015456D01*
X012100Y015450D02*
X012325Y015450D01*
X012325Y015443D02*
X012107Y015443D01*
X012113Y015437D02*
X012325Y015437D01*
X012325Y015431D02*
X012119Y015431D01*
X012126Y015424D02*
X012325Y015424D01*
X012325Y015418D02*
X012132Y015418D01*
X012138Y015412D02*
X012325Y015412D01*
X012325Y015405D02*
X012145Y015405D01*
X012151Y015399D02*
X012325Y015399D01*
X012325Y015392D02*
X012158Y015392D01*
X012164Y015386D02*
X012325Y015386D01*
X012325Y015380D02*
X012170Y015380D01*
X012175Y015584D02*
X012325Y015584D01*
X012325Y015590D02*
X012175Y015590D01*
X012175Y015596D02*
X012325Y015596D01*
X012325Y015603D02*
X012175Y015603D01*
X012175Y015609D02*
X012325Y015609D01*
X012325Y015616D02*
X012175Y015616D01*
X012175Y015622D02*
X012325Y015622D01*
X012325Y015628D02*
X012175Y015628D01*
X012175Y015635D02*
X012325Y015635D01*
X012325Y015641D02*
X012175Y015641D01*
X012175Y015647D02*
X012325Y015647D01*
X012325Y015654D02*
X012175Y015654D01*
X012175Y015660D02*
X012325Y015660D01*
X012325Y015667D02*
X012175Y015667D01*
X012175Y015673D02*
X012325Y015673D01*
X012325Y015679D02*
X012175Y015679D01*
X012175Y015686D02*
X012325Y015686D01*
X012325Y015692D02*
X012175Y015692D01*
X012175Y015698D02*
X012325Y015698D01*
X012325Y015705D02*
X012175Y015705D01*
X012175Y015711D02*
X012325Y015711D01*
X012325Y015718D02*
X012175Y015718D01*
X012175Y015724D02*
X012325Y015724D01*
X012325Y015730D02*
X012175Y015730D01*
X012175Y015737D02*
X012325Y015737D01*
X012325Y015743D02*
X012175Y015743D01*
X012175Y015749D02*
X012325Y015749D01*
X012325Y015756D02*
X012175Y015756D01*
X012175Y015762D02*
X012325Y015762D01*
X012325Y015769D02*
X012175Y015769D01*
X012175Y015775D02*
X012325Y015775D01*
X012325Y015781D02*
X012175Y015781D01*
X012175Y015788D02*
X012325Y015788D01*
X012325Y015794D02*
X012175Y015794D01*
X012175Y015800D02*
X012325Y015800D01*
X012325Y015807D02*
X012175Y015807D01*
X012175Y015813D02*
X012325Y015813D01*
X012325Y015820D02*
X012175Y015820D01*
X012175Y015826D02*
X012325Y015826D01*
X012325Y015832D02*
X012175Y015832D01*
X012175Y015839D02*
X012325Y015839D01*
X012325Y015845D02*
X012175Y015845D01*
X012175Y015851D02*
X012325Y015851D01*
X012325Y015858D02*
X012175Y015858D01*
X012175Y015864D02*
X012325Y015864D01*
X012325Y015871D02*
X012175Y015871D01*
X012175Y015877D02*
X012325Y015877D01*
X012325Y015883D02*
X012175Y015883D01*
X012175Y015890D02*
X012325Y015890D01*
X012325Y015896D02*
X012175Y015896D01*
X012175Y015902D02*
X012325Y015902D01*
X012325Y015909D02*
X012175Y015909D01*
X012175Y015915D02*
X012325Y015915D01*
X012325Y015922D02*
X012175Y015922D01*
X012175Y015928D02*
X012325Y015928D01*
X012325Y015934D02*
X012175Y015934D01*
X012175Y015941D02*
X012325Y015941D01*
X012325Y015947D02*
X012175Y015947D01*
X012175Y015953D02*
X012325Y015953D01*
X012325Y015960D02*
X012175Y015960D01*
X012175Y015966D02*
X012325Y015966D01*
X012325Y015973D02*
X012175Y015973D01*
X012425Y015975D02*
X012575Y015975D01*
X012775Y015575D01*
X012975Y015975D01*
X013125Y015975D01*
X012825Y015375D01*
X012725Y015375D01*
X012425Y015975D01*
X012426Y015973D02*
X012576Y015973D01*
X012579Y015966D02*
X012429Y015966D01*
X012433Y015960D02*
X012583Y015960D01*
X012586Y015953D02*
X012436Y015953D01*
X012439Y015947D02*
X012589Y015947D01*
X012592Y015941D02*
X012442Y015941D01*
X012445Y015934D02*
X012595Y015934D01*
X012599Y015928D02*
X012449Y015928D01*
X012452Y015922D02*
X012602Y015922D01*
X012605Y015915D02*
X012455Y015915D01*
X012458Y015909D02*
X012608Y015909D01*
X012611Y015902D02*
X012461Y015902D01*
X012464Y015896D02*
X012614Y015896D01*
X012618Y015890D02*
X012468Y015890D01*
X012471Y015883D02*
X012621Y015883D01*
X012624Y015877D02*
X012474Y015877D01*
X012477Y015871D02*
X012627Y015871D01*
X012630Y015864D02*
X012480Y015864D01*
X012484Y015858D02*
X012634Y015858D01*
X012637Y015851D02*
X012487Y015851D01*
X012490Y015845D02*
X012640Y015845D01*
X012643Y015839D02*
X012493Y015839D01*
X012496Y015832D02*
X012646Y015832D01*
X012650Y015826D02*
X012500Y015826D01*
X012503Y015820D02*
X012653Y015820D01*
X012656Y015813D02*
X012506Y015813D01*
X012509Y015807D02*
X012659Y015807D01*
X012662Y015800D02*
X012512Y015800D01*
X012515Y015794D02*
X012665Y015794D01*
X012669Y015788D02*
X012519Y015788D01*
X012522Y015781D02*
X012672Y015781D01*
X012675Y015775D02*
X012525Y015775D01*
X012528Y015769D02*
X012678Y015769D01*
X012681Y015762D02*
X012531Y015762D01*
X012535Y015756D02*
X012685Y015756D01*
X012688Y015749D02*
X012538Y015749D01*
X012541Y015743D02*
X012691Y015743D01*
X012694Y015737D02*
X012544Y015737D01*
X012547Y015730D02*
X012697Y015730D01*
X012701Y015724D02*
X012551Y015724D01*
X012554Y015718D02*
X012704Y015718D01*
X012707Y015711D02*
X012557Y015711D01*
X012560Y015705D02*
X012710Y015705D01*
X012713Y015698D02*
X012563Y015698D01*
X012566Y015692D02*
X012716Y015692D01*
X012720Y015686D02*
X012570Y015686D01*
X012573Y015679D02*
X012723Y015679D01*
X012726Y015673D02*
X012576Y015673D01*
X012579Y015667D02*
X012729Y015667D01*
X012732Y015660D02*
X012582Y015660D01*
X012586Y015654D02*
X012736Y015654D01*
X012739Y015647D02*
X012589Y015647D01*
X012592Y015641D02*
X012742Y015641D01*
X012745Y015635D02*
X012595Y015635D01*
X012598Y015628D02*
X012748Y015628D01*
X012752Y015622D02*
X012602Y015622D01*
X012605Y015616D02*
X012755Y015616D01*
X012758Y015609D02*
X012608Y015609D01*
X012611Y015603D02*
X012761Y015603D01*
X012764Y015596D02*
X012614Y015596D01*
X012617Y015590D02*
X012767Y015590D01*
X012771Y015584D02*
X012621Y015584D01*
X012624Y015577D02*
X012774Y015577D01*
X012776Y015577D02*
X012926Y015577D01*
X012923Y015571D02*
X012627Y015571D01*
X012630Y015565D02*
X012920Y015565D01*
X012917Y015558D02*
X012633Y015558D01*
X012637Y015552D02*
X012913Y015552D01*
X012910Y015545D02*
X012640Y015545D01*
X012643Y015539D02*
X012907Y015539D01*
X012904Y015533D02*
X012646Y015533D01*
X012649Y015526D02*
X012901Y015526D01*
X012897Y015520D02*
X012653Y015520D01*
X012656Y015514D02*
X012894Y015514D01*
X012891Y015507D02*
X012659Y015507D01*
X012662Y015501D02*
X012888Y015501D01*
X012885Y015494D02*
X012665Y015494D01*
X012668Y015488D02*
X012882Y015488D01*
X012878Y015482D02*
X012672Y015482D01*
X012675Y015475D02*
X012875Y015475D01*
X012872Y015469D02*
X012678Y015469D01*
X012681Y015463D02*
X012869Y015463D01*
X012866Y015456D02*
X012684Y015456D01*
X012688Y015450D02*
X012862Y015450D01*
X012859Y015443D02*
X012691Y015443D01*
X012694Y015437D02*
X012856Y015437D01*
X012853Y015431D02*
X012697Y015431D01*
X012700Y015424D02*
X012850Y015424D01*
X012846Y015418D02*
X012704Y015418D01*
X012707Y015412D02*
X012843Y015412D01*
X012840Y015405D02*
X012710Y015405D01*
X012713Y015399D02*
X012837Y015399D01*
X012834Y015392D02*
X012716Y015392D01*
X012719Y015386D02*
X012831Y015386D01*
X012827Y015380D02*
X012723Y015380D01*
X012779Y015584D02*
X012929Y015584D01*
X012933Y015590D02*
X012783Y015590D01*
X012786Y015596D02*
X012936Y015596D01*
X012939Y015603D02*
X012789Y015603D01*
X012792Y015609D02*
X012942Y015609D01*
X012945Y015616D02*
X012795Y015616D01*
X012798Y015622D02*
X012948Y015622D01*
X012952Y015628D02*
X012802Y015628D01*
X012805Y015635D02*
X012955Y015635D01*
X012958Y015641D02*
X012808Y015641D01*
X012811Y015647D02*
X012961Y015647D01*
X012964Y015654D02*
X012814Y015654D01*
X012818Y015660D02*
X012968Y015660D01*
X012971Y015667D02*
X012821Y015667D01*
X012824Y015673D02*
X012974Y015673D01*
X012977Y015679D02*
X012827Y015679D01*
X012830Y015686D02*
X012980Y015686D01*
X012984Y015692D02*
X012834Y015692D01*
X012837Y015698D02*
X012987Y015698D01*
X012990Y015705D02*
X012840Y015705D01*
X012843Y015711D02*
X012993Y015711D01*
X012996Y015718D02*
X012846Y015718D01*
X012849Y015724D02*
X012999Y015724D01*
X013003Y015730D02*
X012853Y015730D01*
X012856Y015737D02*
X013006Y015737D01*
X013009Y015743D02*
X012859Y015743D01*
X012862Y015749D02*
X013012Y015749D01*
X013015Y015756D02*
X012865Y015756D01*
X012869Y015762D02*
X013019Y015762D01*
X013022Y015769D02*
X012872Y015769D01*
X012875Y015775D02*
X013025Y015775D01*
X013028Y015781D02*
X012878Y015781D01*
X012881Y015788D02*
X013031Y015788D01*
X013035Y015794D02*
X012885Y015794D01*
X012888Y015800D02*
X013038Y015800D01*
X013041Y015807D02*
X012891Y015807D01*
X012894Y015813D02*
X013044Y015813D01*
X013047Y015820D02*
X012897Y015820D01*
X012900Y015826D02*
X013050Y015826D01*
X013054Y015832D02*
X012904Y015832D01*
X012907Y015839D02*
X013057Y015839D01*
X013060Y015845D02*
X012910Y015845D01*
X012913Y015851D02*
X013063Y015851D01*
X013066Y015858D02*
X012916Y015858D01*
X012920Y015864D02*
X013070Y015864D01*
X013073Y015871D02*
X012923Y015871D01*
X012926Y015877D02*
X013076Y015877D01*
X013079Y015883D02*
X012929Y015883D01*
X012932Y015890D02*
X013082Y015890D01*
X013086Y015896D02*
X012936Y015896D01*
X012939Y015902D02*
X013089Y015902D01*
X013092Y015909D02*
X012942Y015909D01*
X012945Y015915D02*
X013095Y015915D01*
X013098Y015922D02*
X012948Y015922D01*
X012951Y015928D02*
X013101Y015928D01*
X013105Y015934D02*
X012955Y015934D01*
X012958Y015941D02*
X013108Y015941D01*
X013111Y015947D02*
X012961Y015947D01*
X012964Y015953D02*
X013114Y015953D01*
X013117Y015960D02*
X012967Y015960D01*
X012971Y015966D02*
X013121Y015966D01*
X013124Y015973D02*
X012974Y015973D01*
X010775Y015975D02*
X010775Y015775D01*
X010575Y015575D01*
X010575Y015775D01*
X010375Y015775D01*
X010575Y015975D01*
X010775Y015975D01*
X010775Y015973D02*
X010573Y015973D01*
X010566Y015966D02*
X010775Y015966D01*
X010775Y015960D02*
X010560Y015960D01*
X010553Y015953D02*
X010775Y015953D01*
X010775Y015947D02*
X010547Y015947D01*
X010541Y015941D02*
X010775Y015941D01*
X010775Y015934D02*
X010534Y015934D01*
X010528Y015928D02*
X010775Y015928D01*
X010775Y015922D02*
X010522Y015922D01*
X010515Y015915D02*
X010775Y015915D01*
X010775Y015909D02*
X010509Y015909D01*
X010502Y015902D02*
X010775Y015902D01*
X010775Y015896D02*
X010496Y015896D01*
X010490Y015890D02*
X010775Y015890D01*
X010775Y015883D02*
X010483Y015883D01*
X010477Y015877D02*
X010775Y015877D01*
X010775Y015871D02*
X010471Y015871D01*
X010464Y015864D02*
X010775Y015864D01*
X010775Y015858D02*
X010458Y015858D01*
X010451Y015851D02*
X010775Y015851D01*
X010775Y015845D02*
X010445Y015845D01*
X010439Y015839D02*
X010775Y015839D01*
X010775Y015832D02*
X010432Y015832D01*
X010426Y015826D02*
X010775Y015826D01*
X010775Y015820D02*
X010420Y015820D01*
X010413Y015813D02*
X010775Y015813D01*
X010775Y015807D02*
X010407Y015807D01*
X010400Y015800D02*
X010775Y015800D01*
X010775Y015794D02*
X010394Y015794D01*
X010388Y015788D02*
X010775Y015788D01*
X010775Y015781D02*
X010381Y015781D01*
X010375Y015775D02*
X010375Y015575D01*
X010575Y015575D01*
X010775Y015375D01*
X010175Y015375D01*
X010175Y015975D01*
X010375Y015775D01*
X010175Y015775D01*
X010175Y015781D02*
X010369Y015781D01*
X010362Y015788D02*
X010175Y015788D01*
X010175Y015794D02*
X010356Y015794D01*
X010350Y015800D02*
X010175Y015800D01*
X010175Y015807D02*
X010343Y015807D01*
X010337Y015813D02*
X010175Y015813D01*
X010175Y015820D02*
X010330Y015820D01*
X010324Y015826D02*
X010175Y015826D01*
X010175Y015832D02*
X010318Y015832D01*
X010311Y015839D02*
X010175Y015839D01*
X010175Y015845D02*
X010305Y015845D01*
X010299Y015851D02*
X010175Y015851D01*
X010175Y015858D02*
X010292Y015858D01*
X010286Y015864D02*
X010175Y015864D01*
X010175Y015871D02*
X010279Y015871D01*
X010273Y015877D02*
X010175Y015877D01*
X010175Y015883D02*
X010267Y015883D01*
X010260Y015890D02*
X010175Y015890D01*
X010175Y015896D02*
X010254Y015896D01*
X010248Y015902D02*
X010175Y015902D01*
X010175Y015909D02*
X010241Y015909D01*
X010235Y015915D02*
X010175Y015915D01*
X010175Y015922D02*
X010228Y015922D01*
X010222Y015928D02*
X010175Y015928D01*
X010175Y015934D02*
X010216Y015934D01*
X010209Y015941D02*
X010175Y015941D01*
X010175Y015947D02*
X010203Y015947D01*
X010197Y015953D02*
X010175Y015953D01*
X010175Y015960D02*
X010190Y015960D01*
X010184Y015966D02*
X010175Y015966D01*
X010175Y015973D02*
X010177Y015973D01*
X010175Y015769D02*
X010375Y015769D01*
X010375Y015762D02*
X010175Y015762D01*
X010175Y015756D02*
X010375Y015756D01*
X010375Y015749D02*
X010175Y015749D01*
X010175Y015743D02*
X010375Y015743D01*
X010375Y015737D02*
X010175Y015737D01*
X010175Y015730D02*
X010375Y015730D01*
X010375Y015724D02*
X010175Y015724D01*
X010175Y015718D02*
X010375Y015718D01*
X010375Y015711D02*
X010175Y015711D01*
X010175Y015705D02*
X010375Y015705D01*
X010375Y015698D02*
X010175Y015698D01*
X010175Y015692D02*
X010375Y015692D01*
X010375Y015686D02*
X010175Y015686D01*
X010175Y015679D02*
X010375Y015679D01*
X010375Y015673D02*
X010175Y015673D01*
X010175Y015667D02*
X010375Y015667D01*
X010375Y015660D02*
X010175Y015660D01*
X010175Y015654D02*
X010375Y015654D01*
X010375Y015647D02*
X010175Y015647D01*
X010175Y015641D02*
X010375Y015641D01*
X010375Y015635D02*
X010175Y015635D01*
X010175Y015628D02*
X010375Y015628D01*
X010375Y015622D02*
X010175Y015622D01*
X010175Y015616D02*
X010375Y015616D01*
X010375Y015609D02*
X010175Y015609D01*
X010175Y015603D02*
X010375Y015603D01*
X010375Y015596D02*
X010175Y015596D01*
X010175Y015590D02*
X010375Y015590D01*
X010375Y015584D02*
X010175Y015584D01*
X010175Y015577D02*
X010375Y015577D01*
X010575Y015577D02*
X010577Y015577D01*
X010579Y015571D02*
X010175Y015571D01*
X010175Y015565D02*
X010585Y015565D01*
X010592Y015558D02*
X010175Y015558D01*
X010175Y015552D02*
X010598Y015552D01*
X010605Y015545D02*
X010175Y015545D01*
X010175Y015539D02*
X010611Y015539D01*
X010617Y015533D02*
X010175Y015533D01*
X010175Y015526D02*
X010624Y015526D01*
X010630Y015520D02*
X010175Y015520D01*
X010175Y015514D02*
X010636Y015514D01*
X010643Y015507D02*
X010175Y015507D01*
X010175Y015501D02*
X010649Y015501D01*
X010656Y015494D02*
X010175Y015494D01*
X010175Y015488D02*
X010662Y015488D01*
X010668Y015482D02*
X010175Y015482D01*
X010175Y015475D02*
X010675Y015475D01*
X010681Y015469D02*
X010175Y015469D01*
X010175Y015463D02*
X010687Y015463D01*
X010694Y015456D02*
X010175Y015456D01*
X010175Y015450D02*
X010700Y015450D01*
X010707Y015443D02*
X010175Y015443D01*
X010175Y015437D02*
X010713Y015437D01*
X010719Y015431D02*
X010175Y015431D01*
X010175Y015424D02*
X010726Y015424D01*
X010732Y015418D02*
X010175Y015418D01*
X010175Y015412D02*
X010738Y015412D01*
X010745Y015405D02*
X010175Y015405D01*
X010175Y015399D02*
X010751Y015399D01*
X010758Y015392D02*
X010175Y015392D01*
X010175Y015386D02*
X010764Y015386D01*
X010770Y015380D02*
X010175Y015380D01*
X010575Y015584D02*
X010584Y015584D01*
X010590Y015590D02*
X010575Y015590D01*
X010575Y015596D02*
X010596Y015596D01*
X010603Y015603D02*
X010575Y015603D01*
X010575Y015609D02*
X010609Y015609D01*
X010616Y015616D02*
X010575Y015616D01*
X010575Y015622D02*
X010622Y015622D01*
X010628Y015628D02*
X010575Y015628D01*
X010575Y015635D02*
X010635Y015635D01*
X010641Y015641D02*
X010575Y015641D01*
X010575Y015647D02*
X010647Y015647D01*
X010654Y015654D02*
X010575Y015654D01*
X010575Y015660D02*
X010660Y015660D01*
X010667Y015667D02*
X010575Y015667D01*
X010575Y015673D02*
X010673Y015673D01*
X010679Y015679D02*
X010575Y015679D01*
X010575Y015686D02*
X010686Y015686D01*
X010692Y015692D02*
X010575Y015692D01*
X010575Y015698D02*
X010698Y015698D01*
X010705Y015705D02*
X010575Y015705D01*
X010575Y015711D02*
X010711Y015711D01*
X010718Y015718D02*
X010575Y015718D01*
X010575Y015724D02*
X010724Y015724D01*
X010730Y015730D02*
X010575Y015730D01*
X010575Y015737D02*
X010737Y015737D01*
X010743Y015743D02*
X010575Y015743D01*
X010575Y015749D02*
X010749Y015749D01*
X010756Y015756D02*
X010575Y015756D01*
X010575Y015762D02*
X010762Y015762D01*
X010769Y015769D02*
X010575Y015769D01*
X010575Y015775D02*
X010775Y015775D01*
D32*
X006725Y019675D02*
X006475Y019425D01*
X005975Y019425D01*
X005725Y019675D01*
X005475Y019425D01*
X004975Y019425D01*
X004725Y019675D01*
X004475Y019425D01*
X003975Y019425D01*
X003725Y019675D01*
X003475Y019425D01*
X002975Y019425D01*
X002725Y019675D01*
X002475Y019425D01*
X001975Y019425D01*
X001725Y019675D01*
X001475Y019425D01*
X000975Y019425D01*
X000725Y019675D01*
X000725Y020175D01*
X000975Y020425D01*
X001475Y020425D01*
X001725Y020175D01*
X001975Y020425D01*
X002475Y020425D01*
X002725Y020175D01*
X002725Y019675D01*
X002725Y020175D02*
X002975Y020425D01*
X003475Y020425D01*
X003725Y020175D01*
X003975Y020425D01*
X004475Y020425D01*
X004725Y020175D01*
X004975Y020425D01*
X005475Y020425D01*
X005725Y020175D01*
X005975Y020425D01*
X006475Y020425D01*
X006725Y020175D01*
X006725Y019675D01*
X005725Y019675D02*
X005725Y020175D01*
X004725Y020175D02*
X004725Y019675D01*
X003725Y019675D02*
X003725Y020175D01*
X001725Y020175D02*
X001725Y019675D01*
X004139Y011445D02*
X004461Y011445D01*
X004461Y010945D02*
X004139Y010945D01*
X003800Y009325D02*
X004900Y009325D01*
X004917Y009323D01*
X004934Y009319D01*
X004950Y009312D01*
X004964Y009302D01*
X004977Y009289D01*
X004987Y009275D01*
X004994Y009259D01*
X004998Y009242D01*
X005000Y009225D01*
X005000Y008625D01*
X004998Y008608D01*
X004994Y008591D01*
X004987Y008575D01*
X004977Y008561D01*
X004964Y008548D01*
X004950Y008538D01*
X004934Y008531D01*
X004917Y008527D01*
X004900Y008525D01*
X003800Y008525D01*
X003783Y008527D01*
X003766Y008531D01*
X003750Y008538D01*
X003736Y008548D01*
X003723Y008561D01*
X003713Y008575D01*
X003706Y008591D01*
X003702Y008608D01*
X003700Y008625D01*
X003700Y009225D01*
X003702Y009242D01*
X003706Y009259D01*
X003713Y009275D01*
X003723Y009289D01*
X003736Y009302D01*
X003750Y009312D01*
X003766Y009319D01*
X003783Y009323D01*
X003800Y009325D01*
X003750Y008925D02*
X003950Y008925D01*
X004750Y008925D02*
X004950Y008925D01*
X006064Y009800D02*
X006386Y009800D01*
X006386Y010300D02*
X006064Y010300D01*
X008294Y010155D02*
X008294Y007695D01*
X009656Y007695D01*
X009656Y010155D01*
X008294Y010155D01*
D33*
X006225Y019925D03*
X005225Y019925D03*
X004225Y019925D03*
X003225Y019925D03*
X002225Y019925D03*
X001225Y019925D03*
D34*
X009975Y008925D03*
D35*
X007975Y008925D03*
X007975Y008025D03*
X007975Y009825D03*
D36*
X006513Y008925D03*
X005943Y008925D03*
X005943Y007800D03*
X006513Y007800D03*
X004582Y010070D03*
X004012Y010070D03*
X005937Y011175D03*
X006507Y011175D03*
X001757Y013175D03*
X001187Y013175D03*
X001387Y018820D03*
X001957Y018820D03*
D37*
X004012Y011194D03*
X004592Y011194D03*
X005933Y010051D03*
X006513Y010051D03*
D38*
X003560Y009115D02*
X003340Y009115D01*
X003340Y008785D01*
X003560Y008785D01*
X003450Y008950D02*
X003340Y008950D01*
X003192Y008840D02*
X003137Y008785D01*
X002972Y008785D01*
X002972Y009115D01*
X003137Y009115D01*
X003192Y009060D01*
X003192Y008840D01*
X002824Y008840D02*
X002824Y009060D01*
X002768Y009115D01*
X002658Y009115D01*
X002603Y009060D01*
X002603Y008840D01*
X002658Y008785D01*
X002768Y008785D01*
X002824Y008840D01*
X002455Y008785D02*
X002455Y009115D01*
X002345Y009005D01*
X002235Y009115D01*
X002235Y008785D01*
M02*
