G75*
%MOIN*%
%OFA0B0*%
%FSLAX24Y24*%
%IPPOS*%
%LPD*%
%AMOC8*
5,1,8,0,0,1.08239X$1,22.5*
%
%ADD10C,0.0000*%
D10*
X001850Y002300D02*
X014600Y002300D01*
X014600Y008300D01*
X016350Y010300D01*
X016350Y016050D01*
X015725Y016050D01*
X015725Y017800D01*
X016350Y017800D01*
X016350Y021050D01*
X000100Y021050D01*
X000100Y017800D01*
X000725Y017800D01*
X000725Y016050D01*
X000100Y016050D01*
X000100Y010300D01*
X001850Y008300D01*
X001850Y002300D01*
X000443Y016175D02*
X000445Y016200D01*
X000451Y016224D01*
X000460Y016246D01*
X000473Y016267D01*
X000489Y016286D01*
X000508Y016302D01*
X000529Y016315D01*
X000551Y016324D01*
X000575Y016330D01*
X000600Y016332D01*
X000625Y016330D01*
X000649Y016324D01*
X000671Y016315D01*
X000692Y016302D01*
X000711Y016286D01*
X000727Y016267D01*
X000740Y016246D01*
X000749Y016224D01*
X000755Y016200D01*
X000757Y016175D01*
X000755Y016150D01*
X000749Y016126D01*
X000740Y016104D01*
X000727Y016083D01*
X000711Y016064D01*
X000692Y016048D01*
X000671Y016035D01*
X000649Y016026D01*
X000625Y016020D01*
X000600Y016018D01*
X000575Y016020D01*
X000551Y016026D01*
X000529Y016035D01*
X000508Y016048D01*
X000489Y016064D01*
X000473Y016083D01*
X000460Y016104D01*
X000451Y016126D01*
X000445Y016150D01*
X000443Y016175D01*
X000443Y017675D02*
X000445Y017700D01*
X000451Y017724D01*
X000460Y017746D01*
X000473Y017767D01*
X000489Y017786D01*
X000508Y017802D01*
X000529Y017815D01*
X000551Y017824D01*
X000575Y017830D01*
X000600Y017832D01*
X000625Y017830D01*
X000649Y017824D01*
X000671Y017815D01*
X000692Y017802D01*
X000711Y017786D01*
X000727Y017767D01*
X000740Y017746D01*
X000749Y017724D01*
X000755Y017700D01*
X000757Y017675D01*
X000755Y017650D01*
X000749Y017626D01*
X000740Y017604D01*
X000727Y017583D01*
X000711Y017564D01*
X000692Y017548D01*
X000671Y017535D01*
X000649Y017526D01*
X000625Y017520D01*
X000600Y017518D01*
X000575Y017520D01*
X000551Y017526D01*
X000529Y017535D01*
X000508Y017548D01*
X000489Y017564D01*
X000473Y017583D01*
X000460Y017604D01*
X000451Y017626D01*
X000445Y017650D01*
X000443Y017675D01*
X015693Y017675D02*
X015695Y017700D01*
X015701Y017724D01*
X015710Y017746D01*
X015723Y017767D01*
X015739Y017786D01*
X015758Y017802D01*
X015779Y017815D01*
X015801Y017824D01*
X015825Y017830D01*
X015850Y017832D01*
X015875Y017830D01*
X015899Y017824D01*
X015921Y017815D01*
X015942Y017802D01*
X015961Y017786D01*
X015977Y017767D01*
X015990Y017746D01*
X015999Y017724D01*
X016005Y017700D01*
X016007Y017675D01*
X016005Y017650D01*
X015999Y017626D01*
X015990Y017604D01*
X015977Y017583D01*
X015961Y017564D01*
X015942Y017548D01*
X015921Y017535D01*
X015899Y017526D01*
X015875Y017520D01*
X015850Y017518D01*
X015825Y017520D01*
X015801Y017526D01*
X015779Y017535D01*
X015758Y017548D01*
X015739Y017564D01*
X015723Y017583D01*
X015710Y017604D01*
X015701Y017626D01*
X015695Y017650D01*
X015693Y017675D01*
X015693Y016175D02*
X015695Y016200D01*
X015701Y016224D01*
X015710Y016246D01*
X015723Y016267D01*
X015739Y016286D01*
X015758Y016302D01*
X015779Y016315D01*
X015801Y016324D01*
X015825Y016330D01*
X015850Y016332D01*
X015875Y016330D01*
X015899Y016324D01*
X015921Y016315D01*
X015942Y016302D01*
X015961Y016286D01*
X015977Y016267D01*
X015990Y016246D01*
X015999Y016224D01*
X016005Y016200D01*
X016007Y016175D01*
X016005Y016150D01*
X015999Y016126D01*
X015990Y016104D01*
X015977Y016083D01*
X015961Y016064D01*
X015942Y016048D01*
X015921Y016035D01*
X015899Y016026D01*
X015875Y016020D01*
X015850Y016018D01*
X015825Y016020D01*
X015801Y016026D01*
X015779Y016035D01*
X015758Y016048D01*
X015739Y016064D01*
X015723Y016083D01*
X015710Y016104D01*
X015701Y016126D01*
X015695Y016150D01*
X015693Y016175D01*
M02*
